<svg width="50" height="50" viewBox="0 0 50 50" fill="none" xmlns="http://www.w3.org/2000/svg">
<g clip-path="url(#clip0_740_1765)">
<path d="M25 0C11.1922 0 0 11.1922 0 25C0 38.8078 11.1922 50 25 50C38.8078 50 50 38.8078 50 25C50 11.1922 38.8078 0 25 0ZM25 48.4375C12.0766 48.4375 1.5625 37.9234 1.5625 25C1.5625 12.0766 12.0766 1.5625 25 1.5625C37.9234 1.5625 48.4375 12.0766 48.4375 25C48.4375 37.9234 37.9234 48.4375 25 48.4375Z" fill="white"/>
<path d="M25 38.9687C19.2188 38.9687 14.5156 34.2656 14.5156 28.4844H12.9531C12.9531 35.1266 18.3578 40.5312 25 40.5312C31.6437 40.5312 37.0484 35.1266 37.0484 28.4844H35.4859C35.4859 34.2656 30.7812 38.9687 25 38.9687Z" fill="white"/>
<path d="M21.2203 17.8891C21.2203 15.0594 18.9172 12.7578 16.0875 12.7578C13.2578 12.7578 10.9531 15.0609 10.9531 17.8891C10.9531 20.7203 13.2563 23.0219 16.0859 23.0219C18.9156 23.0219 21.2203 20.7203 21.2203 17.8891ZM12.5156 17.8891C12.5156 15.9203 14.1172 14.3203 16.0859 14.3203C18.0547 14.3203 19.6563 15.9203 19.6563 17.8891C19.6563 19.8578 18.0547 21.4594 16.0859 21.4594C14.1172 21.4594 12.5156 19.8578 12.5156 17.8891Z" fill="white"/>
<path d="M33.9141 12.7578C31.0828 12.7578 28.7812 15.0609 28.7812 17.8891C28.7812 20.7203 31.0844 23.0219 33.9141 23.0219C36.7437 23.0219 39.0453 20.7187 39.0453 17.8891C39.0453 15.0609 36.7422 12.7578 33.9141 12.7578ZM33.9141 21.4594C31.9453 21.4594 30.3438 19.8578 30.3438 17.8891C30.3438 15.9203 31.9453 14.3203 33.9141 14.3203C35.8828 14.3203 37.4828 15.9203 37.4828 17.8891C37.4828 19.8578 35.8828 21.4594 33.9141 21.4594Z" fill="white"/>
</g>
<defs>
<clipPath id="clip0_740_1765">
<rect width="50" height="50" fill="white"/>
</clipPath>
</defs>
</svg>
