<svg width="60" height="60" viewBox="0 0 60 60" fill="none" xmlns="http://www.w3.org/2000/svg">
<path d="M26.9575 20.584C26.9631 20.5291 27.4579 15.667 27.4266 15.975C27.4266 15.975 26.9261 20.8921 26.9575 20.584Z" fill="#E4E4E4"/>
<path d="M22.0594 25.5938C21.0837 26.6696 20.3283 27.5731 19.4739 28.8392C20.2565 27.5766 21.049 26.5913 22.0594 25.5938Z" fill="#E4E4E4"/>
<path d="M20.5592 33.2578C20.2304 33.8946 20.2043 34.0031 20.5538 33.2578H20.5592Z" fill="#E4E4E4"/>
<path d="M18.4374 47.9149C18.369 47.9833 18.2164 48.075 18.0119 48.5094C17.881 48.7658 17.761 49.0331 17.6574 49.3003C15.7865 47.0912 14.2919 44.5603 13.3319 41.8439C11.7914 37.4846 11.1049 33.7998 12.8192 29.6094C13.4025 30.0474 15.7151 31.3585 17.6137 32.1512C15.6836 36.366 15.4967 40.0913 17.7283 44.3312C17.3202 44.2495 17.0308 44.4551 16.9428 44.773C16.8446 45.1275 17.0192 45.5475 17.1392 45.8639C17.4088 46.5553 18.1885 47.6291 18.4374 47.9149Z" fill="#E4E4E4"/>
<path d="M41.963 51.9522C37.244 57.1791 27.3822 57.5412 21.6611 53.1305C21.4375 52.9559 21.2138 52.7813 20.9957 52.6013C20.9162 51.7017 20.3689 49.4624 19.7302 48.4395C20.0125 48.369 20.196 48.1905 20.2702 47.9922C24.4522 52.7736 30.5689 55.5659 36.7266 54.3795C38.6357 54.0086 40.4466 53.1632 41.963 51.9522Z" fill="#E4E4E4"/>
<path d="M24.0883 23.547C23.6901 23.9179 23.3029 24.2997 22.9265 24.6924C18.5775 21.9415 14.8574 15.5362 12.9447 10.9088C12.6237 10.1318 12.6485 9.58212 13.9483 9.07065C16.4811 8.07909 18.7306 7.37534 21.0447 6.78517C21.661 6.62703 22.1792 6.43061 22.5611 6.71425C21.5465 12.3215 22.0865 18.207 24.0883 23.547Z" fill="#E4E4E4"/>
<path d="M21.7029 36.973C21.1351 37.6986 20.268 38.4807 19.959 39.3607C19.8294 39.7299 19.4846 40.4658 19.5906 40.8604C18.594 37.148 20.1635 33.3503 22.3498 30.4012C25.1759 26.5889 30.9891 21.7277 34.0329 20.1613C36.4701 18.9111 38.7794 18.5512 41.2243 20.1196C42.9919 21.2535 44.2628 23.0146 45.306 24.8372C47.9823 29.5131 49.4283 34.886 49.4603 40.2735C49.4367 36.2972 47.1306 32.1431 44.3671 29.4204C42.9852 28.0589 41.2913 26.5867 39.3126 26.4111C37.0786 26.2129 34.8122 26.7342 32.75 27.5688C28.0462 29.4723 24.8774 32.9156 21.7029 36.973Z" fill="#E4E4E4"/>
<path d="M18.5945 52.8198C18.6685 52.9797 18.7771 53.1383 18.9424 53.1992C19.1527 53.2766 19.398 53.1645 19.5307 52.9839C19.8497 52.5496 19.7807 51.4246 19.0968 51.2388C18.2157 50.9994 18.3859 52.3691 18.5945 52.8198Z" fill="#E4E4E4"/>
<path d="M6.45218 39.5259C6.39113 39.5515 6.56504 41.489 4.73072 42.8608C4.71627 42.8716 4.66693 42.9209 4.6499 42.9197C5.93398 43.0099 7.14345 43.8855 7.72349 45.0347C7.56247 44.3213 7.81509 43.5061 8.12358 42.8431C8.43207 42.1801 8.9651 41.624 9.61447 41.2878C8.59968 41.5397 7.0701 40.9116 6.51915 39.6491C6.50484 39.6163 6.48447 39.5802 6.47688 39.5451C6.47342 39.5292 6.48561 39.5216 6.46182 39.5238C6.45793 39.5242 6.45479 39.5248 6.45218 39.5259Z" fill="#E4E4E4"/>
<path d="M39.8177 37.0669C38.7501 36.8381 38.0525 37.956 37.3577 37.9287C36.2257 37.8631 36.1843 34.8269 33.3977 35.4414C30.7866 36.0288 29.7033 38.3843 30.905 40.176C32.0448 41.8858 33.008 40.5067 33.9377 40.4051C34.3948 40.3616 34.8373 40.8897 35.3396 41.2778C35.9505 41.7469 36.725 41.9978 37.4995 41.9978C39.1743 41.9978 40.5353 40.7707 40.8759 39.3088C41.0953 38.3874 40.7454 37.2732 39.8177 37.0669ZM40.0796 39.1178C39.8777 39.9851 39.2068 40.7324 38.3723 41.0324C37.5377 41.3269 36.545 41.1687 35.8414 40.6287C35.7323 40.547 35.6232 40.4487 35.5087 40.356C34.507 39.4731 33.9748 39.3497 32.7268 39.9851C32.1596 40.2797 32.0068 40.356 31.5868 39.7233C30.6494 38.3289 31.6453 36.6664 33.5778 36.2433C34.7559 35.9814 35.1432 36.5214 35.8359 37.6779C36.2341 38.3433 36.7468 38.7142 37.3086 38.7469C38.3226 38.8078 39.0467 37.7284 39.6432 37.8688C40.0811 37.9638 40.1887 38.6746 40.0796 39.1178Z" fill="white"/>
<path d="M37.0467 9.57706C37.1015 9.58072 39.3969 9.73414 39.2504 9.72434C39.4631 9.72434 39.6431 9.56068 39.6595 9.34255C39.6704 9.11883 39.5013 8.92254 39.2776 8.90616L37.1013 8.75888C36.8776 8.7425 36.6813 8.91708 36.6649 9.14067C36.6485 9.36432 36.8176 9.56068 37.0467 9.57706Z" fill="white"/>
<path d="M32.6885 9.28257C32.7433 9.28622 35.0442 9.43962 34.8976 9.42985C35.1103 9.42985 35.2903 9.26619 35.3012 9.04806C35.3176 8.82441 35.1485 8.62805 34.9248 8.61713L32.7485 8.46985C32.5249 8.45347 32.323 8.62259 32.3121 8.85164C32.2958 9.07529 32.4648 9.27165 32.6885 9.28257Z" fill="white"/>
<path d="M21.6794 40.9885C20.9105 39.0906 20.9102 36.9133 21.6789 35.0157C21.7636 34.8061 21.6626 34.5677 21.4533 34.4827C21.244 34.3988 21.0053 34.4992 20.9204 34.7086C20.0729 36.8014 20.0731 39.2025 20.9209 41.2958C21.006 41.5059 21.2447 41.6055 21.4538 41.5214C21.6632 41.4365 21.7641 41.1981 21.6794 40.9885Z" fill="white"/>
<path d="M22.1213 42.1425C22.0468 41.9289 21.8142 41.8154 21.6006 41.8902C21.387 41.9645 21.2744 42.1976 21.3484 42.4109L21.4781 42.7849C21.552 42.9984 21.7845 43.1116 21.9983 43.0381C22.2119 42.9644 22.3253 42.7313 22.2516 42.518L22.1213 42.1425Z" fill="white"/>
<path d="M5.5134 14.3053C7.02354 14.5397 6.95625 14.5351 7.015 14.5351C7.51566 14.5351 7.57402 13.7994 7.07759 13.7217L5.64018 13.4972C5.41433 13.4621 5.20739 13.6147 5.17276 13.8379C5.13761 14.0611 5.29022 14.2704 5.5134 14.3053Z" fill="white"/>
<path d="M7.50652 13.2324C7.56937 13.3944 7.72411 13.4932 7.88764 13.4932C8.17347 13.4932 8.37371 13.2049 8.26877 12.9357L7.85142 11.8627C7.76966 11.6523 7.53235 11.5476 7.32195 11.6294C7.11128 11.7111 7.00687 11.9482 7.08864 12.1588L7.50652 13.2324Z" fill="white"/>
<path d="M55.4505 14.5875C54.1263 14.2391 52.5148 12.6311 52.1941 10.7475C52.0703 10.1008 52.1451 9.62046 52.1451 9.4767C52.2439 9.25055 52.1234 9.01365 51.916 8.92032C51.665 8.81264 51.3969 8.94985 51.3105 9.16575C49.2036 12.6142 45.9115 12.7963 45.796 12.8421C45.3819 12.8262 45.188 13.3531 45.5505 13.6003C47.3942 14.773 48.5887 17.1131 48.5232 19.4312C48.5104 19.9203 49.1987 20.006 49.3251 19.5567C49.6087 18.5475 50.4323 17.533 51.7742 16.5348C52.7996 15.7767 54.0705 15.3621 55.3414 15.3893C55.846 15.3764 55.9057 14.6984 55.4505 14.5875ZM51.2832 15.8803C50.3942 16.5403 49.7014 17.2276 49.2214 17.9203C48.9105 16.2021 48.0214 14.5875 46.7614 13.4857C48.6304 13.0191 50.2566 11.9317 51.3378 10.5621C51.4577 11.3609 51.6665 12.1626 52.156 12.8749C52.4833 13.3821 53.056 14.1458 53.8632 14.7184C52.936 14.9149 52.0524 15.313 51.2832 15.8803Z" fill="white"/>
<path d="M9.51767 40.8894C8.74902 41.0816 7.46736 40.5955 6.97587 39.6567C6.9486 39.6022 6.92133 39.5476 6.87769 39.4658C6.84381 39.2118 6.57921 39.0506 6.29951 39.144C6.29951 39.1494 6.29405 39.1494 6.29405 39.1494C5.98716 39.2811 6.03735 39.5841 6.01586 39.7985C5.81296 41.6233 4.61814 42.3962 4.45041 42.564C4.0959 42.7665 4.22003 43.2984 4.6195 43.3276C5.72679 43.404 6.82858 44.1676 7.35769 45.2203C7.56984 45.6446 8.23607 45.4138 8.12131 44.9421C8.01224 44.4458 8.13769 43.7803 8.49225 43.0167C8.76497 42.4331 9.2286 41.9476 9.80132 41.6531C9.98679 41.5549 10.0686 41.3367 9.99767 41.1458C9.92133 40.9494 9.71406 40.8404 9.51767 40.8894ZM7.35223 43.8185C6.84496 43.2949 6.21768 42.8967 5.54678 42.684C5.59085 42.5958 6.33369 41.9356 6.68676 40.6549C7.17057 41.1813 7.80562 41.5013 8.44314 41.6586C7.892 42.2414 7.51468 43.0527 7.35223 43.8185Z" fill="white"/>
<path d="M42.8994 21.3763C42.8013 20.929 42.5449 20.5853 42.1522 20.0617C41.3046 18.9115 40.418 18.0915 39.6267 17.5635L41.2249 5.26896C41.2964 4.70904 40.8708 4.23808 40.3576 4.20529L37.0795 3.97078C36.894 3.95986 36.7194 4.06893 36.6594 4.24351C36.5013 4.70174 36.234 5.08353 35.8849 5.33988C35.2467 5.80896 34.3195 5.84165 33.7304 5.41079C33.3322 5.12168 33.054 4.65806 32.8576 3.94348C32.8085 3.77442 32.6613 3.65437 32.4922 3.64352L29.2085 3.40895C28.7013 3.37079 28.254 3.74173 28.2049 4.25443L28.1613 4.6799L23.094 4.06893C22.8922 4.04169 22.7013 4.17806 22.6522 4.37441C22.4885 4.99078 22.3576 5.5853 22.2431 6.16898C21.8383 6.12467 21.399 6.26446 20.9449 6.38711C18.5296 7.00301 16.1998 7.74567 13.7995 8.68898C13.4394 8.8308 12.4904 9.20174 12.3704 10.0581C12.3158 10.4562 12.4685 10.8217 12.5667 11.0617C12.7413 11.4817 12.9213 11.9017 13.1067 12.3108C9.48534 14.4364 10.135 14.0889 9.75219 14.269C9.47401 14.3999 9.16309 14.5417 8.95582 14.8308C8.50667 15.4639 8.93986 16.4375 9.25581 17.1381C9.43582 17.5362 9.60491 17.8963 9.77946 18.2399L9.73581 18.289C8.52331 19.7095 5.94453 21.8045 5.61764 22.1017C5.3762 22.2951 5.01762 22.5211 5.01762 22.9199C5.00127 23.3726 5.36672 23.7326 5.60672 23.9672C7.88695 26.3223 9.24983 27.7869 12.3158 29.7708C12.2067 30.0599 12.1085 30.3381 12.0267 30.5835C10.7067 34.5762 11.6886 38.4217 12.9485 41.9835C13.8813 44.6344 15.3104 47.1271 17.1976 49.3853C16.4995 51.2599 16.3111 53.8048 17.9122 54.9872C19.1957 55.9374 21.1817 55.4587 21.4031 53.4489L21.4086 53.4544C27.3543 58.0327 37.3938 57.5836 42.2558 52.2435L42.2584 52.2383C42.6908 51.8911 43.1098 51.5066 43.5051 51.0926H43.5103C43.5436 51.0726 43.5636 51.0564 43.6304 51.0053H43.6358C48.0049 47.8471 50.4485 41.8471 49.7231 36.0762C48.9922 30.3544 46.5703 25.1344 42.8994 21.3763ZM40.2758 19.1454C39.5611 18.7639 39.312 18.7202 38.6885 18.589C36.466 18.311 35.6647 18.9082 33.8449 19.7944C30.6278 21.4454 22.7564 27.9768 20.3886 32.7053C20.3739 32.72 20.2014 33.0523 20.1922 33.0708V33.0762C20.1867 33.0817 20.1867 33.0817 20.1813 33.0871C19.617 34.211 19.447 34.7636 19.1558 35.8035V35.8144C18.7563 37.2788 18.6571 39.255 18.8395 40.7126C19.2431 44.2035 21.7903 47.2527 23.8631 49.1944C28.2007 53.2895 34.09 54.7424 39.1576 53.1817C34.1121 55.5366 26.1266 54.1005 20.7213 47.8853C20.7191 47.8308 20.7863 47.5678 20.634 47.149C20.514 46.8272 20.3067 46.5545 20.1104 46.309C18.5735 44.3603 18.5154 44.1996 18.0213 44.0017L18.0158 43.9962C16.1284 40.2214 15.92 36.7951 17.9885 32.3235C18.4732 31.2524 19.2461 29.915 19.3249 29.8362C19.4246 29.774 19.4495 29.6549 19.8154 29.0676C19.8177 29.0661 19.8213 29.0646 19.8213 29.0617C20.0633 28.726 20.6242 27.841 21.7386 26.5713C24.7806 23.1284 28.1016 20.4144 32.0667 18.3108C34.1927 17.1697 35.9193 16.6264 38.1922 17.6835C38.454 17.8035 38.7158 17.9453 38.9667 18.1035C38.9722 18.1035 38.9722 18.1089 38.9776 18.1089C39.3255 18.3538 39.708 18.5887 40.2758 19.1454ZM33.3133 21.0287C33.3527 21.1208 33.4237 21.2 33.5226 21.2436C37.3906 22.9471 38.6667 27.6344 37.447 29.5396C37.0853 30.1053 36.3148 30.5799 35.6003 30.3445C35.1134 30.1843 34.7246 29.7287 34.283 29.329C33.5857 28.6956 32.8852 28.4453 32.2514 28.6053C31.2334 28.8634 30.9118 29.9796 30.3785 30.5855C29.6106 31.4575 28.1756 31.4016 27.2147 30.9075C26.1651 30.3679 25.3823 29.3853 24.6127 28.3337C26.6993 26.0972 30.7144 22.578 33.3133 21.0287ZM36.6962 52.7444C36.6869 52.7813 36.69 52.8175 36.6909 52.8538C36.5097 52.8263 29.7992 54.2983 23.4721 47.6526C23.329 46.9476 23.3716 46.2104 23.6027 45.5163C23.7795 44.986 24.1857 44.5724 24.7466 44.3521C25.7656 43.9516 27.077 44.4659 27.5532 45.4516C27.8565 46.0807 27.9553 46.9992 28.6865 47.4965C29.4202 47.9948 30.2768 47.7586 31.0323 47.5505C31.1775 47.5106 31.3213 47.4709 31.4619 47.4374C32.9119 47.0922 34.5267 47.5548 35.5739 48.6162C36.6211 49.6783 37.0616 51.2987 36.6962 52.7444ZM18.5503 47.3999C18.4849 47.318 18.4249 47.2308 18.3649 47.1435C17.563 46.0122 17.5321 45.7199 17.5031 45.6653C17.3921 45.3716 17.1733 44.7953 17.4867 44.7326C17.5416 44.7326 17.5776 44.7171 17.6394 44.7326C17.694 44.7708 17.7992 44.686 18.1904 45.1963C19.7049 47.1192 19.7647 47.1588 19.8649 47.438C19.9194 47.5689 19.9304 47.7162 19.8976 47.8199C19.8793 47.8382 19.8834 47.8614 19.8758 47.869C19.8704 47.8853 19.8594 47.8963 19.8594 47.8963C19.8594 47.9017 19.854 47.9017 19.854 47.9072C19.4116 47.3682 18.9677 47.2748 18.5503 47.3999ZM29.0176 4.33619C29.0231 4.27081 29.0776 4.22713 29.1376 4.22713C29.2286 4.22713 29.1435 4.22715 32.154 4.43986C32.3994 5.18167 32.7595 5.71621 33.2449 6.07083C34.4726 6.97054 36.5199 6.58393 37.3195 4.80534C40.7456 5.08063 40.315 4.95295 40.4122 5.15983L38.8576 17.0999C38.4758 16.898 38.0885 16.7344 37.6904 16.6144C35.4997 15.8853 33.711 16.5053 31.6794 17.5908C30.1235 18.4208 27.9231 19.8363 27.4031 20.269C27.4009 20.269 27.4017 20.269 27.4009 20.269C28.6021 8.43164 26.6605 27.6219 28.5431 9.01078C28.599 9.01443 30.6618 9.14932 30.5449 9.14168C31.0621 9.14168 31.0954 8.3613 30.5667 8.3235L28.6249 8.19259L28.9304 5.17621L29.0176 4.33619ZM23.3558 4.92533L28.074 5.49262C26.6091 20.0199 26.6831 19.2142 26.5085 20.9345C25.5048 21.7151 24.53 22.5749 24.2776 22.8163C24.2722 22.8163 24.2667 22.8217 24.2667 22.8217C24.2455 22.8005 24.1562 22.5229 24.1467 22.4944C22.1663 16.8856 21.9948 10.4151 23.3558 4.92533ZM20.8958 16.8053L19.5922 14.6126C19.6413 14.5908 19.6958 14.5635 19.7613 14.5308C21.7786 13.5224 22.2919 15.8678 20.8958 16.8053ZM18.5722 14.318C18.1055 14.5047 17.7248 14.5535 17.3395 14.2254C16.9943 13.9374 17.4068 13.3796 17.9013 13.1944L18.5722 14.318ZM13.3249 10.7507C13.0835 10.1831 13.0239 9.87082 14.0995 9.45263C15.6322 8.84711 17.1922 8.30712 18.7304 7.84895C21.5141 7.01177 22.0411 6.99018 22.0958 6.97624C21.6353 9.6096 21.5841 12.84 21.6867 13.8708C21.0867 13.4072 20.3067 13.429 19.3522 13.9308L19.2213 13.9962C19.1176 13.8217 18.714 13.1454 18.6158 12.9817C19.0113 12.9178 19.3756 12.8913 19.7831 12.9435C20.0058 12.9559 20.1228 12.8826 20.1758 12.6598C20.2204 12.3927 20.0858 12.2424 19.8594 12.2235C19.3085 12.1635 18.7631 12.2017 18.2285 12.3272C18.0989 12.1457 18.0831 11.9806 17.8576 11.9181C17.5758 11.8554 17.3375 12.104 17.4267 12.3272C17.454 12.4035 17.4867 12.4853 17.5303 12.5672C16.0778 13.2458 16.1725 14.9071 17.7595 15.1744C18.0813 15.2235 18.4795 15.1471 18.9485 14.9453L20.214 17.0726C19.7395 17.1598 19.2976 17.0508 18.894 16.7617C18.7249 16.6362 18.594 16.669 18.5122 16.7181C18.2966 16.8527 18.2033 17.1861 18.4685 17.3453C18.7685 17.5635 19.1231 17.7107 19.5158 17.7817C19.8867 17.8471 20.2522 17.8253 20.6067 17.7271C20.6518 17.7915 20.953 18.3402 21.1194 18.3816C21.2036 18.4097 21.2917 18.4038 21.3922 18.3436C21.5425 18.2576 21.6368 18.0346 21.5231 17.8526L21.2667 17.4217C21.511 17.2641 21.778 17.0257 21.954 16.7617C22.1918 18.5504 22.7737 21.1417 23.6122 23.4326C23.6092 23.4356 22.9237 24.1047 22.8649 24.1635C18.7253 21.3499 15.1302 15.1715 13.3249 10.7507ZM10.4286 14.8417L13.4558 13.0581C15.2852 16.934 18.513 22.1109 22.0358 24.589C22.1067 24.6381 22.1885 24.6981 22.2867 24.758C22.234 24.8126 22.1605 24.8877 21.7719 25.3057C20.4432 26.6168 19.8794 27.466 18.9648 28.8763H18.9594C14.9295 25.2946 11.8936 21.0655 10.0031 16.7999C9.18905 15.0058 9.64962 15.3182 10.4286 14.8417ZM13.8922 26.438L12.2613 25.0744C12.3164 25.0194 12.4597 24.8601 12.5395 24.7962C13.6862 23.7523 14.717 25.3247 13.8922 26.438ZM11.3122 25.129C11.0281 25.3737 10.7464 25.5339 10.3304 25.3853C10.0356 25.2674 10.1343 24.8407 10.3358 24.589C10.3794 24.5399 10.4286 24.4853 10.4831 24.4362L11.3122 25.129ZM9.12491 26.3344C8.78807 26.0337 5.91051 23.1998 5.84126 22.969C5.8959 22.922 9.20353 20.2021 10.1776 19.0254C11.0854 20.7584 12.1248 22.3777 13.194 23.8144C12.7413 23.8417 12.294 24.1035 11.8413 24.589L11.7649 24.6653C11.6985 24.6099 11.0648 24.0831 11.0231 24.049C11.1431 23.9835 11.2685 23.9181 11.394 23.869C11.8027 23.6977 12.0061 23.7259 12.114 23.5908C12.2601 23.4123 12.1359 22.9735 11.7703 23.0781C11.3176 23.1817 10.8922 23.3672 10.5049 23.6181L10.3249 23.4653C10.0538 23.2394 9.63787 23.5857 9.85037 23.869C9.88856 23.9181 9.93763 23.9672 9.9922 24.0217C8.67617 25.3386 10.2868 26.9636 11.814 25.5435L13.4013 26.8635C13.0522 27.0599 12.6867 27.0926 12.2885 26.9726C11.8352 26.8491 11.7093 27.5102 12.1031 27.589C12.6412 27.7631 13.3608 27.6841 13.9249 27.2999C14.0292 27.3733 14.3612 27.6762 14.5195 27.6762C14.8282 27.6376 14.896 27.2754 14.6994 27.1089L14.3831 26.8471C14.5948 26.5797 14.7556 26.2136 14.8085 25.8326C14.9905 26.0296 16.4037 27.7403 18.5176 29.5744C18.0564 30.3271 17.4603 31.4863 17.4158 31.6198H17.4104C14.6267 30.4146 11.6108 28.5193 9.12491 26.3344ZM13.7176 41.7107C12.3101 37.7292 11.5399 34.1388 13.0195 30.229C13.5992 30.591 14.0522 30.8419 14.1068 30.8737C12.9634 35.4623 14.2615 40.3931 17.0643 43.9081C17.069 43.9176 17.0729 43.9267 17.0776 43.9362V43.9417C17.0831 43.9635 17.094 43.9799 17.1049 44.0017C17.0994 44.0017 17.0994 44.0017 17.0994 44.0017C17.0537 44.0225 16.9176 44.1 16.8922 44.1381C16.8189 44.1903 16.6958 44.3156 16.6467 44.438C16.6358 44.4489 16.6304 44.4544 16.6304 44.4653C16.5922 44.5254 16.5704 44.5962 16.5485 44.6671C16.2794 45.6203 17.3258 47.0884 17.8958 47.8963C17.8651 47.9578 17.7652 48.0559 17.5467 48.5289C15.8613 46.429 14.574 44.1381 13.7176 41.7107ZM20.1431 54.3381C20.1431 54.3436 20.1376 54.3436 20.1376 54.3436C19.7122 54.7254 18.9267 54.7199 18.3976 54.3272C16.9153 53.2314 17.5337 50.3468 18.3813 48.6871C18.5274 48.3858 18.6073 48.3248 18.6976 48.2344H18.7031C18.9248 48.0128 19.2185 48.3886 19.3849 48.6544C19.9529 49.5754 20.5018 51.6975 20.5904 52.6417C20.6613 53.4435 20.514 54.0108 20.1431 54.3381ZM21.9104 52.8108C21.7358 52.669 21.5613 52.5326 21.3867 52.3908C21.3844 52.3749 21.3272 51.9876 21.3158 51.9762C21.3158 51.67 20.6822 49.2723 20.3122 48.6544C20.5736 48.9685 21.8067 50.1705 22.6522 50.8417C26.6826 54.1536 31.9195 55.7351 36.8067 54.7799C36.9322 54.758 37.0522 54.7308 37.1722 54.7035C31.7417 56.7206 25.7598 55.7779 21.9104 52.8108ZM43.1558 50.3399C43.1379 50.3527 43.0759 50.3979 43.0576 50.4163C43.0545 50.4173 42.7407 50.6283 42.3322 50.8853C42.3267 50.8853 42.3267 50.8908 42.3213 50.8908C40.9802 51.7285 39.3262 52.392 37.5302 52.7197C37.867 51.0611 37.3465 49.2488 36.1564 48.0417C34.9128 46.7808 32.9952 46.2314 31.2723 46.6415C30.5023 46.8251 29.6678 47.1752 29.1467 46.82C28.6962 46.5134 28.5984 45.7343 28.2899 45.0957C27.627 43.7225 25.8684 43.0332 24.4475 43.5904C23.3909 44.0057 22.643 44.9105 22.578 46.6551C22.5772 46.6543 22.5765 46.6535 22.5758 46.6526C21.1686 44.9672 19.9086 42.8781 19.6522 40.6198C19.3823 38.2268 19.7544 35.8172 20.7703 33.7853L20.7758 33.7799C21.8709 31.3962 23.5701 29.5156 24.0556 28.9564C25.2743 30.6077 26.6371 32.085 28.7014 32.085C29.5526 32.085 30.3977 31.8024 30.9927 31.1262C31.9165 30.077 32.0758 28.3445 33.9929 30.1788C34.3831 30.552 34.7866 30.9379 35.3443 31.1217C36.4603 31.4897 37.5946 30.8263 38.1363 29.9807C38.6117 29.2376 38.7915 28.2695 38.67 27.1032C38.3803 24.3282 36.5855 21.8053 34.0741 20.6017C34.1231 20.5744 34.1667 20.5472 34.2158 20.5254C37.9522 18.5627 39.5084 19.0723 42.2503 21.8726C45.4893 25.1661 47.7361 29.6316 48.653 34.577C48.3331 34.5553 48.0871 34.8943 47.9318 34.9486C46.5125 35.4466 45.8495 37.0921 46.5357 38.4363C46.7248 38.8075 47.0098 39.1224 47.111 39.4316C47.3622 40.1991 46.6607 41.2135 46.9645 42.2665C47.118 42.7997 47.6055 43.2732 48.1689 43.3187C48.1687 43.3191 48.1686 43.3195 48.1685 43.3199C47.2031 46.1617 45.4631 48.6708 43.1558 50.3399ZM48.4249 42.4853C48.424 42.4884 48.4229 42.4915 48.422 42.4947C48.3892 42.4951 48.3567 42.4916 48.3234 42.5003C48.0972 42.5613 47.8248 42.2974 47.7507 42.0398C47.5276 41.2671 48.2314 40.2252 47.8887 39.177C47.7344 38.7072 47.4414 38.412 47.2644 38.0645C46.8043 37.1629 47.2469 36.056 48.2022 35.721C48.4368 35.639 48.5433 35.5463 48.6406 35.4504C48.7037 35.3881 48.6993 35.4005 48.7899 35.3541C48.8339 35.6284 48.8774 35.9 48.9104 36.1799C49.1776 38.3071 48.9976 40.4672 48.4249 42.4853Z" fill="white"/>
</svg>
