<svg width="60" height="60" viewBox="0 0 60 60" fill="none" xmlns="http://www.w3.org/2000/svg">
<path d="M12.375 42.3214C12.3356 45.1274 12.6956 46.5317 14.0484 48.8502C14.4206 49.4886 15.045 50.5574 16.2244 50.7983C16.3819 50.8302 16.5413 50.8461 16.7016 50.8461C17.9466 50.8461 19.2694 49.8758 20.6409 47.9539C21.1659 47.218 21.4209 46.6846 22.5366 43.5036L23.1394 41.7674C23.9597 39.3964 24.0825 39.0721 24.5794 38.5171C25.0922 37.9471 25.4728 37.7464 25.9547 37.4942C26.4131 37.2542 26.9334 36.9805 27.5766 36.3777C29.7684 34.3236 30.0722 31.9949 29.1 30.9289C28.5769 30.3561 27.0591 30.1208 25.8938 30.2258L25.0781 30.3017C24.4153 30.3646 23.7319 30.4292 23.4741 30.4058C23.3203 30.223 23.3194 29.8405 23.3306 29.263C23.3475 28.4099 23.37 27.2408 22.4869 26.2742C21.7434 25.4586 20.6841 25.1352 20.1188 25.0152C19.3266 24.8474 18.7209 24.9299 18.1913 25.0067C18.1116 24.9842 17.8913 24.7892 17.73 24.6458C17.1225 24.1077 16.2056 23.2939 14.3044 22.8683C11.4778 22.2346 9.94594 23.0792 8.71313 23.7561C7.95188 24.1742 7.36969 24.5614 6.64594 25.3077C5.79094 26.1908 4.35938 27.6692 4.07906 29.9858L4.04813 30.1921C3.91031 31.0705 3.54375 33.403 5.37938 34.8899C6.86625 36.0936 8.10938 36.3683 9.20719 36.6092C10.0219 36.7892 10.725 36.943 11.4441 37.4736C12.93 38.5677 12.6506 40.3471 12.4669 41.5246C12.4172 41.8527 12.3788 42.1264 12.375 42.3214ZM12.2794 36.3421C11.3203 35.6361 10.4006 35.4336 9.51188 35.2377C8.47406 35.0089 7.49531 34.7933 6.26625 33.7986C5.06063 32.8227 5.31656 31.1942 5.43938 30.4124L5.47688 30.1564C5.7 28.3086 6.83156 27.1405 7.65844 26.2874C8.26031 25.6658 8.73188 25.3517 9.39188 24.9899C10.2338 24.5277 11.0972 24.0533 12.4322 24.0533C12.8925 24.0533 13.4081 24.1096 13.9988 24.2417C15.5456 24.5877 16.2694 25.2308 16.7981 25.6996C17.235 26.0867 17.6869 26.4852 18.4716 26.3849C18.8484 26.3324 19.2741 26.2742 19.8281 26.3914C20.5088 26.5358 21.0994 26.8386 21.4481 27.2221C21.4481 27.2221 21.4481 27.2221 21.4491 27.223C21.9534 27.7752 21.9394 28.4849 21.9253 29.2367C21.9094 30.0571 21.8916 30.988 22.6856 31.5833C23.1103 31.9011 23.7263 31.8439 25.2122 31.7014L26.0194 31.6264C27.0759 31.5299 27.9309 31.7886 28.0631 31.8767C28.4269 32.2752 28.2506 33.8202 26.6156 35.3521C26.1113 35.8246 25.7175 36.0308 25.3022 36.2492C24.7678 36.5296 24.2156 36.8192 23.5341 37.5786C22.8281 38.3661 22.6331 38.9314 21.8119 41.308L21.21 43.0386C20.13 46.1183 19.9069 46.5636 19.4972 47.1364C17.8697 49.4164 16.8609 49.4905 16.5056 49.4192C15.9422 49.3049 15.5503 48.6317 15.2634 48.1396C14.1375 46.2102 13.7447 45.043 13.7822 42.3402C13.7841 42.193 13.8197 41.9886 13.8581 41.743C14.0663 40.4155 14.4534 37.9424 12.2794 36.3421ZM25.4419 48.0899C25.5478 48.1133 25.6641 48.1133 25.77 48.1133C26.3794 48.1133 27.0356 47.8321 27.7153 47.2461C28.4419 46.6133 28.6641 45.9224 28.9453 45.043C29.0981 44.5742 29.1328 44.3633 29.1563 44.1646C29.1675 44.0474 29.1909 43.9302 29.2734 43.6958C29.4263 43.2505 29.5903 42.9927 29.7422 42.7471C29.9409 42.4189 30.1519 42.0796 30.2578 41.5049C30.5278 39.9224 29.8716 39.4546 29.4497 39.3139C28.7231 39.0796 27.9731 39.583 27.2466 40.0752C26.5434 40.5561 25.7344 41.0942 25.3716 42.0083C25.1963 42.4414 25.1841 42.793 25.1841 43.0517C25.1719 43.3208 25.1719 43.438 25.0078 43.6846C24.9497 43.7783 24.9253 43.8017 24.8672 43.8486C24.7622 43.9536 24.645 44.0708 24.4922 44.2939C24.3169 44.5396 23.8594 45.208 23.8594 46.0161C23.8594 46.2383 23.8828 46.4614 23.9644 46.6958C24.3281 47.7383 25.0434 48.0196 25.4419 48.0899ZM25.6406 45.0899C25.7222 44.9727 25.7578 44.9371 25.8281 44.8789C25.9106 44.8086 26.0269 44.6914 26.1797 44.4683C26.5781 43.8824 26.5781 43.4136 26.5903 43.0742C26.5903 42.8755 26.5903 42.7227 26.6719 42.5352C26.8828 42.0196 27.4219 41.6567 28.0434 41.2339C28.3013 41.0586 28.6997 40.7886 28.9106 40.6949C28.9228 40.8121 28.9106 40.9996 28.875 41.2686C28.8169 41.5733 28.7222 41.7261 28.5469 42.0064C28.3706 42.2877 28.1484 42.6392 27.9488 43.2252C27.8203 43.6002 27.7959 43.7764 27.7613 43.9752C27.7378 44.1158 27.7256 44.2677 27.6084 44.608C27.3384 45.4405 27.21 45.8267 26.7881 46.1783C26.1666 46.7174 25.815 46.7286 25.6866 46.7061C25.5225 46.6705 25.3941 46.5186 25.2994 46.2374C25.1484 45.8042 25.5122 45.2886 25.6406 45.0899ZM0.719063 48.373C0.714375 48.373 0.709688 48.373 0.705 48.373C0.3225 48.373 0.009375 48.0674 0.001875 47.6839L0 47.4964C0 46.7192 0.110625 45.9346 0.33 45.163C0.435938 44.7899 0.826875 44.5733 1.19813 44.6792C1.57219 44.7842 1.78875 45.1733 1.68281 45.5483C1.49906 46.1933 1.40625 46.8486 1.40625 47.4964L1.40813 47.6567C1.41563 48.0449 1.10719 48.3655 0.719063 48.373ZM3.47344 52.4389C3.74156 52.7202 3.73219 53.1646 3.45188 53.4336C3.315 53.5639 3.14063 53.6286 2.96531 53.6286C2.78063 53.6286 2.59594 53.5564 2.45719 53.4121C1.85906 52.7858 1.35844 52.0986 0.97125 51.3683C0.788438 51.0252 0.91875 50.5996 1.26281 50.4177C1.605 50.2367 2.03063 50.3661 2.21344 50.7092C2.53969 51.3261 2.96438 51.9074 3.47344 52.4389ZM14.4478 56.5705C14.4572 56.9586 14.1506 57.2811 13.7625 57.2905C13.5722 57.2952 13.3838 57.2971 13.1981 57.2971C12.5709 57.2971 11.9466 57.2708 11.3428 57.2183C10.9556 57.1855 10.6697 56.8442 10.7034 56.4571C10.7372 56.0699 11.0606 55.7736 11.4647 55.8177C12.1847 55.8796 12.9384 55.9049 13.7259 55.8852C14.0906 55.8627 14.4384 56.1814 14.4478 56.5705ZM8.63063 56.0689C8.53781 56.3708 8.25938 56.5667 7.95844 56.5667C7.89 56.5667 7.82156 56.5564 7.75313 56.5358C6.94406 56.2883 6.17531 55.9799 5.46656 55.6171C5.12063 55.4399 4.98375 55.0161 5.16094 54.6702C5.33719 54.3261 5.75813 54.1874 6.10781 54.3646C6.7425 54.6899 7.43438 54.9674 8.16469 55.1896C8.535 55.3049 8.74406 55.6977 8.63063 56.0689ZM27.6609 52.7914C27.4866 52.4446 27.6263 52.0208 27.9731 51.8474C28.6463 51.5099 29.3269 51.1489 30.0178 50.7636C30.3591 50.5761 30.7847 50.6961 30.9741 51.0364C31.1625 51.3749 31.0406 51.8042 30.7013 51.9927C29.9916 52.3874 29.2922 52.7567 28.6031 53.1036C28.5009 53.1542 28.3941 53.1796 28.2872 53.1796C28.0322 53.1796 27.7838 53.038 27.6609 52.7914ZM35.9184 47.8958C36.1369 48.2174 36.0534 48.6542 35.7328 48.8727C35.0653 49.3274 34.4072 49.7596 33.7556 50.1739C33.6384 50.248 33.5081 50.2827 33.3806 50.2827C33.1472 50.2827 32.9194 50.1683 32.7853 49.9564C32.5772 49.6292 32.6747 49.1942 33.0028 48.9861C33.6413 48.5811 34.2881 48.1555 34.9416 47.7102C35.2631 47.4908 35.7 47.5761 35.9184 47.8958ZM59.6184 34.8674C59.2331 34.1839 58.6041 33.6917 57.8484 33.4817C57.2025 33.3027 56.5341 33.3589 55.9256 33.6177C56.2041 31.5064 56.2509 29.3558 56.0381 27.1996C54.7594 14.2902 44.4628 3.99362 31.5553 2.71487C23.2828 1.89737 15.2044 4.77268 9.37125 10.6067C3.53813 16.4408 0.661875 24.5267 1.47938 32.7899C1.74094 35.4346 2.4 37.9602 3.36375 40.3302C2.8725 40.8074 2.415 41.3024 2.02781 41.8171C1.79344 42.1274 1.85625 42.5689 2.16656 42.8024C2.29313 42.8971 2.44219 42.943 2.58844 42.943C2.80219 42.943 3.01219 42.8464 3.15 42.6636C3.39281 42.3411 3.6675 42.0271 3.95906 41.7186C6.85875 47.8508 11.9784 52.7211 18.27 55.3246C17.8884 55.4033 17.5031 55.4971 17.1272 55.5589C16.7447 55.6217 16.485 55.9836 16.5478 56.3671C16.6041 56.7111 16.9022 56.9549 17.2406 56.9549C17.2781 56.9549 17.3166 56.953 17.3559 56.9455C18.1294 56.8189 18.9188 56.6567 19.7044 56.4646C19.9369 56.4074 20.1019 56.2367 20.1816 56.0286C22.0341 56.6361 23.9616 57.0749 25.9631 57.2736C26.9109 57.3674 27.8531 57.4142 28.7888 57.4142C35.55 57.4142 41.9409 54.988 47.0278 50.4392C47.3166 50.1805 47.3409 49.7352 47.0831 49.4455C46.8253 49.1586 46.3819 49.1324 46.0894 49.3902C40.5975 54.3027 33.4978 56.5986 26.1009 55.8739C25.1241 55.7774 24.1697 55.6067 23.2266 55.4042C23.925 55.1577 24.6356 54.8886 25.3613 54.5886C25.7203 54.4396 25.8909 54.0289 25.7419 53.6699C25.5938 53.3108 25.185 53.1402 24.8231 53.2892C24.0919 53.5921 23.3747 53.8658 22.6716 54.1124C22.305 54.2408 22.1119 54.6421 22.2403 55.0086C22.2647 55.078 22.3003 55.1408 22.3416 55.1971C11.91 52.5636 3.96469 43.6105 2.87906 32.6511C2.10188 24.8089 4.83094 17.1364 10.365 11.6014C15.9009 6.06643 23.5875 3.34018 31.4156 4.11456C41.3419 5.09706 49.6378 11.7036 53.07 20.6933C52.3397 21.4602 51.7275 22.4521 51.1847 23.3539C50.3916 24.6749 50.1881 25.6574 50.0091 26.5255C49.8844 27.1255 49.7766 27.6439 49.4756 28.1914C48.5981 29.7814 46.5206 30.6627 46.1569 30.5614C46.1531 30.5577 45.7875 30.1377 45.5878 27.8764C45.4828 26.7139 45.2625 24.2971 43.8834 22.1764C43.6003 21.7367 43.4484 21.2605 43.3022 20.8002C43.0697 20.068 42.8288 19.3114 42.0938 18.7799C41.3278 18.2286 40.6088 18.0964 39.8466 17.9567C39.0675 17.8142 38.1853 17.653 36.9122 17.0014C36.3572 16.7202 35.8594 16.4605 35.4066 16.2252C32.8978 14.9192 31.6369 14.2658 30.0909 14.7805C29.0794 15.1292 27.9647 16.0096 27.9084 17.1308C27.855 18.7321 30.0497 19.8374 31.8038 20.7224C32.1647 20.9099 33.9909 21.5474 34.9566 21.3505C34.9575 21.3505 35.0738 21.328 35.0756 21.3271C35.4544 21.2502 35.9738 21.1461 36.6713 21.2352C36.8578 21.2577 37.0697 21.283 37.1016 21.2905C37.2581 21.4649 37.4794 22.5308 37.0706 24.0186C36.7706 25.1089 35.9494 27.0374 33.8184 27.6983C31.4831 28.4183 30.9703 28.0583 30.8738 27.9364C30.6994 27.7152 30.4856 27.5052 30.2531 27.2821C29.9925 27.0308 29.7225 26.7711 29.4928 26.4486C28.3903 24.9261 27.2353 24.4799 26.5444 24.2127C26.3859 24.1517 26.1694 24.0683 26.1131 24.0214C25.7709 23.7402 25.6781 23.4111 25.5319 22.8046C25.4663 22.5346 25.3978 22.2533 25.2928 21.9552C24.4734 19.7014 22.0978 18.1742 20.2397 17.7092C19.0828 17.413 17.9794 17.8499 16.8103 18.3111C16.3144 18.5061 15.8025 18.7067 15.2766 18.8549C14.0672 19.1952 12.525 19.4492 12.0234 18.6899C11.6775 18.1836 11.8584 16.7333 12.3309 16.2261C12.8616 15.6571 13.9059 15.1358 14.9906 14.8977C15.8925 14.6999 17.0147 14.4533 17.5922 13.4399C18.1069 12.5361 18.0619 11.2517 17.4506 9.39924C17.3925 9.22393 17.3531 9.05799 17.3297 8.89768C17.2744 8.51237 16.9125 8.24612 16.5328 8.30237C16.1484 8.35768 15.8822 8.71393 15.9375 9.09924C15.9713 9.33456 16.0294 9.58018 16.1147 9.83893C16.5731 11.2283 16.6613 12.2333 16.3706 12.7442C16.1213 13.1821 15.5428 13.3377 14.6897 13.5252C13.3031 13.8289 12.0375 14.4805 11.3025 15.2671C10.3716 16.2664 10.1447 18.433 10.8694 19.4942C11.6409 20.6652 13.2084 20.8986 15.6572 20.2096C16.2516 20.0417 16.7963 19.8271 17.3241 19.6199C18.3188 19.2289 19.1813 18.8905 19.8956 19.0733C21.4547 19.4633 23.3559 20.7439 23.9681 22.4286C24.0534 22.6724 24.1097 22.9086 24.1641 23.1355C24.3206 23.7833 24.4978 24.5174 25.2188 25.108C25.4494 25.2983 25.7213 25.4033 26.0372 25.5252C26.6522 25.7624 27.495 26.0877 28.3491 27.268C28.6519 27.6936 28.9838 28.0133 29.2772 28.2955C29.4581 28.4699 29.6297 28.6302 29.7694 28.8092C30.6863 29.9511 32.6334 29.5321 34.2328 29.0417C37.6303 27.988 38.4422 24.5736 38.6091 23.5527C38.8153 22.2983 38.7488 20.7496 37.9575 20.1777C37.6444 19.9367 37.3059 19.8964 36.8334 19.8392C35.9241 19.7221 35.2172 19.8636 34.6819 19.9724C34.1991 20.0708 32.7563 19.6339 32.4431 19.4727C31.4991 18.9964 29.2884 17.8827 29.3119 17.1917C29.3288 16.843 29.9175 16.3283 30.54 16.1146C31.4691 15.8052 32.2931 16.1942 34.7559 17.4749C35.2125 17.7121 35.715 17.9736 36.2719 18.2567C37.7259 19.0011 38.7609 19.1905 39.5916 19.3424C40.2966 19.4708 40.7625 19.5561 41.2697 19.9217C41.6119 20.1692 41.7488 20.5592 41.9625 21.2277C42.1284 21.7499 42.3159 22.3414 42.7022 22.9405C43.8938 24.7724 44.0916 26.9549 44.1891 28.0321C44.4384 30.8596 44.9775 31.5055 45.4191 31.7521C45.6384 31.8749 45.8972 31.9367 46.1934 31.9367C46.4381 31.9367 46.7081 31.8946 47.0025 31.8111C48.2297 31.4614 49.8947 30.3392 50.7056 28.8702C51.1097 28.1361 51.2494 27.4621 51.3844 26.8096C51.5484 26.0155 51.7181 25.1942 52.3894 24.0777C52.7559 23.4674 53.1572 22.8149 53.5875 22.2477C54.0956 23.8846 54.465 25.5814 54.6384 27.3383C54.8747 29.7355 54.7819 32.1252 54.3797 34.453L50.8631 36.4386L44.6091 32.5686C43.1503 31.6649 41.3147 31.6283 39.8213 32.473C39.3488 32.7392 39.0403 33.2211 38.9981 33.7611C38.955 34.3021 39.1809 34.8261 39.6056 35.1655L45.2044 39.6346L39.8438 42.6617L38.7347 41.8208C38.2163 41.4271 37.515 41.3811 36.9497 41.7008L35.8209 42.3383C35.3663 42.5933 35.0691 43.0377 35.0053 43.5552C34.9416 44.0736 35.1206 44.5771 35.4994 44.938L37.8431 47.1674L38.5397 50.3249C38.6531 50.8349 38.9916 51.2492 39.4688 51.4611C39.9469 51.673 40.4803 51.6486 40.9322 51.3917L42.0609 50.7542C42.6272 50.4346 42.9488 49.8102 42.8803 49.1614L42.7313 47.7786L48.0928 44.7505L49.0294 51.8539C49.1006 52.3921 49.4325 52.858 49.9172 53.0989C50.1459 53.2142 50.3953 53.2705 50.6438 53.2705C50.9203 53.2705 51.1969 53.2011 51.4444 53.0596C52.9397 52.2158 53.8556 50.6258 53.835 48.9102L53.7506 41.5555L58.5047 38.8714C59.1881 38.4861 59.6803 37.8561 59.8894 37.1014C60.1022 36.3421 60.0047 35.5508 59.6184 34.8674ZM58.5366 36.7227C58.4278 37.1164 58.1719 37.4436 57.8156 37.6452L52.6988 40.5336C52.4756 40.6592 52.3378 40.8974 52.3416 41.1542L52.4316 48.9242C52.4456 50.1271 51.8034 51.2417 50.7553 51.8333C50.6653 51.8821 50.5847 51.8586 50.5463 51.8389C50.5078 51.8192 50.4384 51.7705 50.4253 51.6683L49.3528 43.5327C49.3219 43.3002 49.1784 43.0986 48.9694 42.9946C48.8709 42.9458 48.7631 42.9214 48.6563 42.9214C48.5372 42.9214 48.4172 42.9514 48.3103 43.0114L41.64 46.7783C41.3953 46.9171 41.2566 47.1871 41.2866 47.4664L41.4844 49.3077C41.4938 49.3967 41.4497 49.483 41.3719 49.5261L40.2431 50.1636C40.1569 50.2124 40.0809 50.1899 40.0425 50.1739C40.0031 50.1571 39.9347 50.113 39.9141 50.0174L39.1706 46.6508C39.1406 46.5149 39.0703 46.3902 38.9681 46.2936L36.4697 43.9171C36.3975 43.8496 36.3966 43.7699 36.4013 43.7267C36.4069 43.6855 36.4275 43.6086 36.5138 43.5608L37.6425 42.9233C37.7203 42.8783 37.8178 42.8858 37.8872 42.9392L39.3619 44.0596C39.5869 44.2302 39.8897 44.248 40.1334 44.1121L46.8038 40.3461C47.0072 40.2317 47.1403 40.0236 47.1581 39.7902C47.1778 39.5567 47.0794 39.3299 46.8956 39.1846L40.4822 34.0649C40.4025 34.0002 40.395 33.9167 40.3988 33.8727C40.4034 33.8286 40.4213 33.7471 40.5122 33.6964C41.5584 33.1039 42.8438 33.1292 43.8694 33.763L50.4769 37.8524C50.6963 37.9892 50.97 37.9939 51.1922 37.8674L56.3072 34.978C56.6653 34.7764 57.0788 34.7277 57.4697 34.8364C57.8634 34.9461 58.1906 35.203 58.3922 35.5583C58.5956 35.9146 58.6463 36.3271 58.5366 36.7227Z" fill="white"/>
</svg>
