<svg width="60" height="60" viewBox="0 0 60 60" fill="none" xmlns="http://www.w3.org/2000/svg">
<path d="M52.4533 37.7208C52.2669 37.6598 52.0783 37.6235 51.8873 37.593C51.3095 37.5005 50.6041 37.402 49.908 37.3059C49.8259 36.8641 49.7333 36.4247 49.6279 35.9864C48.0705 29.3606 43.5833 23.2915 37.322 20.5059C38.624 19.4231 39.6857 18.052 40.3912 16.5051C43.7861 8.9735 38.2525 0.443421 30.0001 0.422327C23.3251 0.362561 17.9111 6.23951 18.5591 12.8911C18.8005 15.8126 20.2595 18.5641 22.4591 20.4708C15.8087 23.493 11.3076 30.1575 10.0197 37.313C9.34585 37.4067 8.66851 37.5016 8.11304 37.5919C7.92202 37.6223 7.73218 37.6587 7.54702 37.7196C5.71304 38.3055 4.96772 40.5954 6.12085 42.1411C6.23569 42.2981 6.36812 42.4376 6.5064 42.5723C7.24468 43.2825 8.93569 44.8704 9.98569 45.8548C9.77007 47.3548 9.55093 48.945 9.35288 50.4227C9.34351 50.493 9.32827 50.5973 9.32241 50.6665C9.10679 52.1805 10.3525 53.5938 11.8806 53.5469C12.3166 53.5399 12.7349 53.4063 13.1052 53.1872C14.5853 52.3141 16.0548 51.4258 17.5162 50.5223C18.9224 51.134 20.3345 51.7329 21.7595 52.3012C21.6916 52.8145 21.6236 53.3278 21.5556 53.8411L21.2955 55.8649C21.224 56.3196 21.2181 56.7954 21.3869 57.2313C21.79 58.4008 23.1658 59.063 24.3166 58.627C24.4677 58.5719 24.6107 58.4969 24.7478 58.4161C26.3908 57.4294 28.3677 56.2094 30.0013 55.1958C31.7556 56.3149 33.3892 57.3637 35.1177 58.4172C35.924 58.9692 36.9669 58.9833 37.7826 58.436C38.5384 57.9426 38.9685 56.9723 38.8326 56.07L38.8291 56.0383L38.8208 55.9751L38.8056 55.8485C38.7013 54.9766 38.4904 53.336 38.3521 52.259C39.0083 51.9965 39.6623 51.7294 40.3138 51.4563C41.0416 51.1505 41.7646 50.8387 42.4876 50.5235C43.9173 51.4071 45.3552 52.2778 46.8025 53.1321C47.1986 53.3805 47.6486 53.5423 48.1232 53.5493C49.6501 53.5985 50.897 52.1794 50.6814 50.6688L50.6767 50.6196L50.6732 50.5915L50.6662 50.5364L50.6509 50.4262C50.4552 48.9532 50.2337 47.3583 50.0193 45.8583C51.0681 44.8751 52.7685 43.2766 53.4986 42.5758C53.6369 42.4411 53.7681 42.3016 53.8841 42.1446C55.0337 40.5954 54.2849 38.3055 52.4533 37.7208ZM51.5333 40.4547C51.5404 40.4501 51.5404 40.4419 51.5451 40.4442C51.5486 40.4454 51.5392 40.4442 51.5439 40.4501L51.5451 40.4524C51.5451 40.4524 51.5333 40.4641 51.5287 40.4688C51.5275 40.4676 51.5275 40.463 51.5333 40.4547ZM11.4775 36.2981C13.6373 29.7169 18.7244 23.8235 25.5587 22.0329C25.8728 21.9485 26.1587 21.7434 26.3345 21.4387C26.6966 20.813 26.4599 20.0102 25.8212 19.6739C24.9822 19.1899 24.2228 18.5735 23.5783 17.8575C21.3201 15.3567 20.7037 11.5493 22.1099 8.48248C24.3318 3.386 30.9189 1.70319 35.3111 5.12037C37.4205 6.71647 38.7107 9.29928 38.7353 11.9442C38.7669 14.1309 37.9583 16.2919 36.5076 17.9337C35.8548 18.6602 35.0861 19.2825 34.2365 19.7758C33.954 19.927 33.7326 20.1813 33.647 20.5141C33.4876 21.1317 33.858 21.761 34.4755 21.9215C37.8013 22.7782 40.8599 24.7106 43.2423 27.2067C45.9201 29.9946 47.788 33.4563 48.8568 37.1594C48.6447 37.129 48.4408 37.0997 48.2498 37.0715C47.9029 37.0223 47.5548 36.9766 47.2068 36.9321C46.7802 36.1047 46.3455 35.2821 45.913 34.4571L45.0705 32.8856C44.8455 32.4356 44.5419 32.0161 44.1166 31.7348C42.7958 30.8079 40.8669 31.3188 40.2259 32.8012C39.5427 34.3868 38.8783 35.9782 38.2384 37.5837C36.9142 37.8907 35.5935 38.2141 34.281 38.5704C33.7302 37.4489 33.1712 36.3145 32.8736 35.7227C31.7509 33.1704 28.2529 33.1692 27.1478 35.7298C26.9076 36.2255 26.6404 36.7774 26.3626 37.3505L25.2916 36.0098C24.3998 34.893 23.9908 33.4962 24.1419 32.0747L24.3423 30.1833C24.5111 28.5989 24.0529 27.0426 23.0533 25.8016L22.3701 24.9532C22.2681 24.8266 22.0841 24.8067 21.9576 24.9087C21.831 25.0106 21.8123 25.1946 21.913 25.3212L22.5962 26.1696C23.4974 27.2887 23.9111 28.6926 23.7587 30.1212L23.5583 32.0126C23.3908 33.5887 23.8431 35.138 24.8333 36.3755L26.0802 37.9352C25.9771 38.1497 25.8728 38.3653 25.7685 38.5821C24.4419 38.2212 23.1072 37.8942 21.7677 37.5837C21.1349 35.9958 20.4787 34.4208 19.8025 32.8528C19.1861 31.334 17.2267 30.7962 15.8896 31.7348C15.463 32.0161 15.1607 32.4368 14.9357 32.8856L14.0931 34.4571C13.6607 35.2821 13.2259 36.1047 12.7994 36.9321C12.4513 36.9766 12.1033 37.0223 11.7564 37.0715C11.5841 37.0962 11.4013 37.1231 11.2115 37.1489C11.2935 36.8641 11.3814 36.5794 11.4775 36.2981ZM24.0201 49.545L29.1013 44.4637V46.1981C29.1013 46.2122 29.1025 46.2262 29.1025 46.2415L23.8021 51.5419C23.8994 51.0755 23.9978 50.6079 24.0927 50.1403C24.1337 49.9422 24.1068 49.7313 24.0201 49.545ZM23.256 54.1317C23.365 53.6173 23.474 53.1028 23.583 52.5883L29.1576 47.0137C29.2244 47.4965 29.3533 47.9665 29.5349 48.4141L23.1025 54.8465L23.256 54.1317ZM29.1013 43.5755V43.6352L23.6509 49.0856C23.365 48.7868 23.0744 48.4844 22.7791 48.1786L28.8822 42.0755C29.0263 42.5594 29.1013 43.0657 29.1013 43.5755ZM22.3724 47.7567C22.0818 47.4555 21.7912 47.1544 21.4982 46.852L25.0103 43.3399C25.3173 43.2989 25.6244 43.259 25.9314 43.218C26.3533 43.1594 26.7482 42.9016 26.9568 42.4938C27.2251 41.9688 27.6388 41.1567 28.0314 40.3821C28.2845 40.7184 28.4966 41.0817 28.6619 41.4661L22.3724 47.7567ZM19.3923 44.6876C19.2283 44.5083 19.2728 44.1989 19.4779 44.0805C19.5353 44.0442 19.608 44.036 19.6748 44.0243L19.738 44.0161L19.8646 43.9997C19.8646 43.9997 20.4869 43.9212 21.0658 43.8473L19.8048 45.1094C19.6677 44.9688 19.5294 44.827 19.3923 44.6876ZM22.0162 43.7278C22.697 43.6423 23.3767 43.5555 24.0564 43.4665L21.0904 46.4325C20.7962 46.1301 20.5044 45.829 20.2138 45.5301L22.0162 43.7278ZM8.46694 40.4547C8.4728 40.463 8.4728 40.4676 8.4728 40.4688C8.46929 40.4653 8.4564 40.4524 8.4564 40.4524L8.45757 40.4501C8.46108 40.4442 8.45171 40.4454 8.4564 40.4442C8.45991 40.443 8.45991 40.4501 8.46694 40.4547ZM20.1341 50.6044C19.3537 50.104 18.5697 49.6118 17.7822 49.1231C17.6205 49.0247 17.4107 49.0012 17.2244 49.0833C15.524 49.8286 13.833 50.5915 12.149 51.3731C11.8923 51.5278 11.5302 51.3122 11.6369 51.018C12.0072 49.2579 12.3986 47.336 12.7478 45.5794C12.8322 45.1598 12.6951 44.6958 12.3599 44.3864C11.4787 43.4923 9.37397 41.3618 8.49155 40.4887C9.59077 40.3352 11.0708 40.1161 12.1701 39.9462C12.7572 39.8583 13.3443 39.7598 13.9302 39.6672C14.3826 39.6051 14.7939 39.3274 15.006 38.8856C15.7736 37.279 16.5845 35.5106 17.3193 33.8782L17.331 33.8536L17.3333 33.8501C17.3404 33.843 17.338 33.8266 17.3427 33.8208C17.3873 33.6544 17.6509 33.6778 17.7212 33.8149C18.6201 35.4227 19.5376 37.0188 20.4857 38.5997C20.6005 38.8282 20.7974 39.0157 21.0763 39.0286C22.0021 39.0883 22.9279 39.1387 23.8548 39.1786C24.3857 39.202 24.9177 39.2208 25.4498 39.2337C25.2248 39.7024 25.0033 40.163 24.797 40.5954C23.0146 40.8766 21.1255 41.193 19.3701 41.4778C19.1744 41.5118 18.9775 41.5493 18.7876 41.6149C16.7837 42.2817 16.1697 44.888 17.6814 46.3622C19.0771 47.663 20.5947 49.061 22.0185 50.3583C21.9564 50.8106 21.8943 51.263 21.8333 51.7165C21.2708 51.3415 20.7037 50.9712 20.1341 50.6044ZM22.8001 56.2505L22.8271 56.1262L22.8751 55.9024L29.7998 48.9778C30.0001 49.3516 30.2427 49.7055 30.524 50.0325L23.2091 57.3473C22.9994 57.2231 22.8365 57.0239 22.7779 56.7708C22.731 56.5997 22.7626 56.4204 22.8001 56.2505ZM24.3248 57.3098C24.2943 57.3227 24.1677 57.3837 24.1431 57.393C24.0693 57.4294 23.9931 57.454 23.9158 57.4692L30.9154 50.4696L31.7603 51.4036L27.1173 56.0465C26.1529 56.4766 25.1919 56.9114 24.3248 57.3098ZM28.6056 55.3868L32.1541 51.8383L32.5583 52.2848C32.7072 52.4489 32.8443 52.6223 32.9697 52.8016L30.7009 55.0704C30.4654 54.9719 30.2322 54.8735 30.0001 54.7774C29.5548 54.9696 29.0861 55.1747 28.6056 55.3868ZM33.9025 55.3036L34.0572 56.5094C33.7419 56.3712 33.4255 56.2329 33.1103 56.0958L33.9025 55.3036ZM32.5314 55.8462C32.113 55.6669 31.697 55.4899 31.2845 55.3153L33.2873 53.3126C33.5064 53.7169 33.6728 54.1469 33.7806 54.5969L32.5314 55.8462ZM35.8302 57.3005C35.4517 57.1282 35.0697 56.9559 34.6841 56.7848L34.4662 55.088C34.3126 53.8915 33.8029 52.7852 32.9931 51.8911L31.0572 49.7524C30.1736 48.7762 29.6873 47.5141 29.6873 46.1981V43.5755C29.6873 42.8969 29.5677 42.2255 29.3404 41.5915C29.2888 41.4426 29.2431 41.309 29.1822 41.1942C28.9783 40.7337 28.7169 40.2989 28.4005 39.9028L28.3244 39.8067C28.5119 39.4352 28.6841 39.0942 28.8165 38.827L29.733 37.0059L29.7904 36.8923L29.8185 36.8348L29.8326 36.8067L29.8373 36.8032C29.849 36.7962 29.849 36.7786 29.8583 36.7727C29.8736 36.7598 29.8806 36.7469 29.8947 36.7423C29.9169 36.7282 29.9544 36.713 30.0001 36.7106C30.047 36.7153 30.0822 36.7305 30.1033 36.7469C30.1162 36.7528 30.122 36.7657 30.1349 36.7786C30.1431 36.7844 30.1419 36.802 30.1525 36.809L30.156 36.8126L30.1701 36.8407L30.1982 36.8981L30.2544 37.013L31.1521 38.8434L32.9673 42.4938L32.9791 42.5173C33.1841 42.9215 33.5779 43.2227 34.0607 43.2883C35.5021 43.4852 38.9404 43.954 40.3419 44.1286C40.4462 44.1438 40.5177 44.179 40.5728 44.2903C40.6044 44.3887 40.6126 44.4661 40.5658 44.5528C40.5599 44.5704 40.5353 44.5856 40.5306 44.6067L40.5084 44.629C39.0775 46.0868 37.5236 47.6887 36.1185 49.1594C35.8537 49.4102 35.7119 49.777 35.7939 50.1602L36.2111 52.1571C36.4525 53.3243 36.9107 55.3387 37.1486 56.5012C37.2072 57.1997 36.4244 57.6204 35.8302 57.3005ZM47.5888 44.438C47.3052 44.7298 47.1658 45.1505 47.2525 45.5794C47.5888 47.2692 47.9638 49.1231 48.3224 50.8212L48.3623 51.018C48.3728 51.059 48.388 51.1012 48.381 51.1446C48.3681 51.3403 48.1162 51.4774 47.9345 51.4094L47.9251 51.4083L47.9005 51.3965L47.8501 51.3731C46.1662 50.5903 44.474 49.8274 42.7712 49.0821C42.5966 49.0071 42.3904 49.0153 42.2169 49.1231C41.4306 49.6118 40.6455 50.104 39.865 50.6044C39.3306 50.9477 38.7998 51.2958 38.2701 51.6462L38.1037 50.4063C39.4818 49.1559 40.9349 47.8001 42.2884 46.5485C42.4337 46.409 42.5732 46.2637 42.6951 46.102C44.0814 44.1813 42.8533 41.6008 40.5177 41.3594C39.4431 41.1801 36.824 40.7758 35.2396 40.5309C35.0533 40.1512 34.8341 39.7036 34.6033 39.2325C34.6525 39.2313 34.7017 39.2301 34.7521 39.229C35.6802 39.202 36.6083 39.1622 37.5341 39.1106C37.997 39.0872 38.4599 39.0579 38.9216 39.0286C39.1818 39.0157 39.3962 38.8387 39.5123 38.5997C40.4603 37.0188 41.3767 35.4227 42.2767 33.8149C42.3458 33.6743 42.613 33.6579 42.6552 33.8208C42.6599 33.8278 42.6576 33.8454 42.6669 33.8536L42.6787 33.8782C43.4123 35.5071 44.2255 37.2813 44.9919 38.8856C45.1888 39.2911 45.5884 39.6028 46.0677 39.6672C46.6548 39.7598 47.2408 39.8583 47.8279 39.9462C48.9248 40.1137 50.413 40.3352 51.5064 40.4887C50.5876 41.3993 48.5064 43.5075 47.5888 44.438Z" fill="white"/>
</svg>
