<svg width="28" height="28" viewBox="0 0 28 28" fill="none" xmlns="http://www.w3.org/2000/svg">
<path d="M24.9375 13.6063V9.1875H25.8125C26.0531 9.1875 26.25 8.99063 26.25 8.75V7.875C26.25 6.18625 24.8762 4.8125 23.1875 4.8125H4.375C2.68625 4.8125 1.3125 6.18625 1.3125 7.875V8.75V14V20.5625C1.3125 20.8031 1.50937 21 1.75 21H3.08875C3.08 21.4813 3.185 21.9581 3.40375 22.4C3.76688 23.135 4.3925 23.6819 5.16688 23.9444C5.49063 24.0538 5.82313 24.1106 6.15125 24.1106C6.615 24.1106 7.07437 24.0056 7.50312 23.7913C8.59687 23.2531 9.2225 22.1419 9.205 21H11.375H17.5H19.2763C19.2675 21.4813 19.3725 21.9581 19.5912 22.4C19.9544 23.135 20.58 23.6819 21.3544 23.9444C21.6781 24.0538 22.0106 24.1106 22.3388 24.1106C22.8025 24.1106 23.2619 24.0056 23.6906 23.7913C24.4256 23.4281 24.9725 22.8025 25.235 22.0281C25.3488 21.6912 25.4012 21.3456 25.3969 21H26.25C26.4906 21 26.6875 20.8031 26.6875 20.5625V15.75C26.6875 14.6956 25.935 13.8119 24.9375 13.6063ZM25.8125 17.0625H24.8412L24.6225 16.1875H25.8125V17.0625ZM24.0625 13.5625H19.6875V9.1875H24.0625V13.5625ZM9.1875 9.1875V13.5625H6.125V9.1875H9.1875ZM5.25 13.5625H2.1875V9.1875H5.25V13.5625ZM7.11812 23.0081C6.0375 23.5419 4.72062 23.0956 4.18687 22.015C3.65312 20.9344 4.09938 19.6175 5.18 19.0838C5.48625 18.935 5.81437 18.8563 6.14687 18.8563C6.38313 18.8563 6.61937 18.8956 6.85125 18.9744C7.40688 19.1625 7.85313 19.5563 8.11125 20.0769C8.645 21.1575 8.19875 22.4744 7.11812 23.0081ZM11.8125 20.125V9.1875H17.0625V20.125H11.8125ZM23.3056 23.0081C22.225 23.5419 20.9081 23.0956 20.3744 22.015C19.8406 20.9344 20.2869 19.6175 21.3675 19.0838C21.6781 18.9306 22.0063 18.8606 22.33 18.8606C23.135 18.8606 23.9137 19.3069 24.2944 20.0813C24.8325 21.1619 24.3862 22.4744 23.3056 23.0081ZM25.2569 20.125C25.2087 19.9763 25.1562 19.8319 25.0863 19.6919C24.3381 18.1781 22.5006 17.5525 20.9825 18.3006C20.2475 18.6638 19.7006 19.2894 19.4381 20.0638C19.4294 20.0856 19.425 20.1075 19.4206 20.125H17.9375V8.75C17.9375 8.50938 17.7406 8.3125 17.5 8.3125H11.375C11.1344 8.3125 10.9375 8.50938 10.9375 8.75V20.125H9.06938C9.02125 19.9763 8.96875 19.8319 8.89875 19.6919C8.15063 18.1781 6.31313 17.5525 4.795 18.3006C4.06 18.6638 3.51312 19.2894 3.25062 20.0638C3.24187 20.0813 3.2375 20.1031 3.23312 20.125H2.1875V14.4375H9.625C9.86563 14.4375 10.0625 14.2406 10.0625 14V8.75C10.0625 8.50938 9.86563 8.3125 9.625 8.3125H2.1875V7.875C2.1875 6.6675 3.1675 5.6875 4.375 5.6875H23.1875C24.395 5.6875 25.375 6.6675 25.375 7.875V8.3125H19.25C19.0094 8.3125 18.8125 8.50938 18.8125 8.75V14C18.8125 14.2406 19.0094 14.4375 19.25 14.4375H24.5C25.0688 14.4375 25.55 14.805 25.7337 15.3125H24.0625C23.9269 15.3125 23.8 15.3738 23.7169 15.4788C23.6337 15.5838 23.6031 15.7238 23.6381 15.855L24.0756 17.605C24.1237 17.8019 24.2987 17.9375 24.5 17.9375H25.8125V20.125H25.2569Z" fill="#BA6827"/>
<path d="M6.125 19.6875C5.40312 19.6875 4.8125 20.2781 4.8125 21C4.8125 21.7219 5.40312 22.3125 6.125 22.3125C6.84687 22.3125 7.4375 21.7219 7.4375 21C7.4375 20.2781 6.84687 19.6875 6.125 19.6875ZM6.125 21.4375C5.88437 21.4375 5.6875 21.2406 5.6875 21C5.6875 20.7594 5.88437 20.5625 6.125 20.5625C6.36563 20.5625 6.5625 20.7594 6.5625 21C6.5625 21.2406 6.36563 21.4375 6.125 21.4375Z" fill="#BA6827"/>
<path d="M22.3125 19.6875C21.5906 19.6875 21 20.2781 21 21C21 21.7219 21.5906 22.3125 22.3125 22.3125C23.0344 22.3125 23.625 21.7219 23.625 21C23.625 20.2781 23.0344 19.6875 22.3125 19.6875ZM22.3125 21.4375C22.0719 21.4375 21.875 21.2406 21.875 21C21.875 20.7594 22.0719 20.5625 22.3125 20.5625C22.5531 20.5625 22.75 20.7594 22.75 21C22.75 21.2406 22.5531 21.4375 22.3125 21.4375Z" fill="#BA6827"/>
</svg>
