<svg width="45" height="29" viewBox="0 0 45 29" fill="none" xmlns="http://www.w3.org/2000/svg">
<path d="M40.5634 8.28169L44.1972 4.30986H36.169C32.1972 1.60563 27.2958 0 22.0563 0C16.8169 0 12 1.60563 8.02817 4.30986H0L3.6338 8.28169C1.43662 10.3099 0 13.1831 0 16.4789C0 22.5634 4.90141 27.5493 11.0704 27.5493C13.9437 27.5493 16.5634 26.4507 18.5915 24.5915L22.1408 28.4789L25.6901 24.5915C27.6338 26.4507 30.2535 27.5493 33.2113 27.5493C39.2958 27.5493 44.2817 22.6479 44.2817 16.4789C44.1127 13.1831 42.7606 10.3099 40.5634 8.28169ZM10.9859 23.9155C6.84507 23.9155 3.5493 20.5352 3.5493 16.4789C3.5493 12.338 6.92958 9.04225 10.9859 9.04225C15.1268 9.04225 18.4225 12.4225 18.4225 16.4789C18.507 20.5352 15.1268 23.9155 10.9859 23.9155ZM22.0563 16.2254C22.0563 11.3239 18.507 7.09859 13.7746 5.32394C16.3099 4.22535 19.0986 3.6338 22.0563 3.6338C25.0141 3.6338 27.8028 4.22535 30.338 5.32394C25.6056 7.09859 22.0563 11.3239 22.0563 16.2254ZM33.1268 23.9155C28.9859 23.9155 25.6901 20.5352 25.6901 16.4789C25.6901 12.338 29.0704 9.04225 33.1268 9.04225C37.2676 9.04225 40.5634 12.4225 40.5634 16.4789C40.5634 20.5352 37.1831 23.9155 33.1268 23.9155ZM33.1268 12.507C30.9296 12.507 29.2394 14.2817 29.2394 16.3944C29.2394 18.507 31.0141 20.2817 33.1268 20.2817C35.3239 20.2817 37.0141 18.507 37.0141 16.3944C37.0141 14.2817 35.2394 12.507 33.1268 12.507ZM14.9577 16.3944C14.9577 18.5915 13.1831 20.2817 11.0704 20.2817C8.87324 20.2817 7.1831 18.507 7.1831 16.3944C7.1831 14.2817 8.95775 12.507 11.0704 12.507C13.1831 12.507 14.9577 14.2817 14.9577 16.3944Z" fill="black"/>
</svg>
