<svg width="40" height="40" viewBox="0 0 40 40" fill="none" xmlns="http://www.w3.org/2000/svg">
<path d="M19.7212 24.8174C19.5646 25.2629 19.2244 25.661 18.7847 25.9121H18.7837C18.2635 26.2112 17.6157 26.3211 16.9683 26.2715H16.9673C16.8309 26.2603 16.6912 26.2427 16.5405 26.2227C16.3924 26.2029 16.2304 26.1807 16.0688 26.1641C15.7448 26.1308 15.381 26.1159 15.0073 26.1943H15.0063C14.2485 26.3549 13.641 26.8693 13.1616 27.2451C12.6357 27.6574 12.2347 27.9322 11.7769 27.9648C11.1342 28.0043 10.4817 27.5131 9.97705 26.7988L9.97412 26.7949L9.8501 26.6113C9.73366 26.4268 9.64169 26.2396 9.58936 26.0605C9.53487 25.8741 9.52866 25.7158 9.56494 25.5791C9.58569 25.5808 9.61071 25.5817 9.64014 25.585C9.69943 25.5916 9.79929 25.6053 9.88916 25.6094C10.6083 25.6423 11.3285 25.6551 12.0483 25.6484C14.6287 25.6245 17.2021 25.3429 19.7212 24.8174Z" stroke="#BA6827"/>
<path d="M23.2292 24.1982C23.5377 24.0389 23.9045 24.0319 24.3162 24.1602C24.7309 24.2894 25.1531 24.5457 25.5154 24.8486L25.5183 24.8506C25.7082 25.0074 25.8944 25.1751 26.0925 25.3525C26.2874 25.5271 26.4931 25.7102 26.7078 25.8818C27.1368 26.225 27.6315 26.5479 28.2292 26.7051L28.2312 26.7061C28.9626 26.8946 29.6757 26.7954 30.3269 26.6211C30.653 26.5338 30.974 26.425 31.28 26.3174C31.5906 26.2082 31.88 26.1014 32.1697 26.0098L32.1707 26.0107C33.4319 25.6182 34.828 25.5552 36.0193 25.9336C34.2702 30.9895 29.8208 34.6038 24.865 36.0479L24.3708 36.1836C23.3437 36.449 22.8377 36.5397 22.4958 36.5791C22.3243 36.5988 22.1896 36.6068 22.0339 36.6162C21.8776 36.6256 21.7063 36.6369 21.4832 36.665C21.2024 36.7004 20.9414 36.7912 20.7322 36.8643C20.5067 36.9429 20.3349 37.0028 20.1628 37.0312C18.1526 37.3634 16.3785 36.1452 15.825 34.3887C16.351 34.4886 16.8695 34.5252 17.3474 34.4219C18.1195 34.2549 18.7095 33.747 19.074 32.8359C19.179 32.5734 19.2228 32.2521 19.2595 32.0615C19.3039 31.8316 19.3487 31.6943 19.4177 31.6006C19.5062 31.4808 19.8155 31.2077 21.2478 31.4971C21.6523 31.5788 22.144 31.6284 22.6052 31.5508C23.0127 31.4822 23.4443 31.3036 23.7361 30.916L23.8523 30.7373C24.0767 30.331 24.0825 29.9044 23.9968 29.5107C23.9135 29.1284 23.736 28.7425 23.5525 28.3818C23.1638 27.6178 22.7348 26.9227 22.573 26.1689V26.168C22.4894 25.7784 22.505 25.3488 22.6238 24.9814C22.7417 24.6167 22.9494 24.3447 23.2292 24.1982Z" stroke="#BA6827"/>
<path d="M35.5232 28.3052C33.2747 32.4626 28.9375 35.8591 22.903 37.0266C14.6889 38.5665 5.03723 33.271 3.48 24.0838C3.44992 23.9063 3.34916 23.6274 3.53421 23.5018C3.75369 23.3528 5.13054 23.3177 5.31943 23.361C5.56597 23.4176 5.53383 23.5263 5.65288 23.8951C8.09471 31.482 16.8386 36.1004 24.5465 34.6554C27.2994 34.1399 29.7882 33.1625 32.0988 31.5402C35.0587 29.4668 34.8148 28.8675 35.5232 28.3052Z" fill="#BA6827"/>
<path d="M25.199 14.2344C27.5486 14.231 29.4553 16.1315 29.4587 18.4766C29.462 20.8261 27.5616 22.7329 25.2166 22.7363C22.8668 22.7397 20.96 20.8384 20.9568 18.4932C20.9538 16.1438 22.8541 14.2377 25.199 14.2344ZM25.6003 17.1416C25.598 16.2461 24.7512 15.643 23.9402 15.8428L23.781 15.8926C22.4279 16.4057 22.7314 18.4893 24.2605 18.4893C24.3591 18.4893 24.455 18.4773 24.5476 18.457C24.5925 18.8662 24.8804 19.2488 25.3728 19.3281V19.3291C25.375 19.3295 25.3774 19.3287 25.3796 19.3291L25.3806 19.3301V19.3291C25.9705 19.425 26.5203 18.9611 26.5203 18.3525C26.5202 17.8201 26.0982 17.3938 25.5808 17.3672C25.5855 17.3381 25.5917 17.309 25.5945 17.2793L25.6003 17.1416Z" stroke="#BA6827"/>
<path d="M32.1847 9.06005C32.2515 9.21782 32.2627 9.93458 32.8647 9.5328C33.7321 8.978 35.1505 7.73117 35.8247 7.06733C36.2029 6.69642 36.672 6.23104 36.8284 5.65283C37.1702 4.39102 36.4029 3.0019 35.112 2.55464C33.6451 2.04576 32.1945 2.92174 31.7338 4.02738C31.4938 4.60196 31.5811 5.2092 31.6611 5.7946C31.6785 5.91625 31.9334 7.99176 32.1847 9.06005ZM32.2393 4.23832C32.6188 3.32571 33.8048 2.67513 34.9338 3.07106C35.9593 3.42369 36.5738 4.51833 36.3047 5.50741C36.1847 5.94739 35.7884 6.33651 35.4393 6.68194C34.7618 7.34862 33.4683 8.47805 32.7265 8.97287C32.5846 8.17091 32.6501 8.96237 32.2029 5.71826C32.1302 5.20556 32.0575 4.67466 32.2393 4.23832Z" fill="#BA6827"/>
<path d="M33.8612 5.94455C35.1829 6.38557 36.1 4.67655 35.1012 3.79176C34.428 3.2006 33.3923 3.50459 33.1012 4.34094C32.8709 4.98724 33.2055 5.71578 33.8612 5.94455ZM34.2903 4.03181C34.7483 4.03181 35.096 4.47881 34.9376 4.9773C34.8057 5.34972 34.4152 5.55351 34.0394 5.42812C33.2907 5.16309 33.5049 4.03181 34.2903 4.03181Z" fill="#BA6827"/>
<path d="M37.4976 18.9625C37.4832 18.819 37.3559 18.7109 37.2139 18.7188C37.2129 18.7188 37.212 18.7193 37.211 18.7193C37.0147 18.5136 36.6969 18.3317 36.2685 18.1763C36.2684 18.139 36.2611 15.8597 36.2612 15.897L36.2576 12.7079C36.2503 12.0898 35.7448 11.588 35.1303 11.588H34.4576C34.4359 11.4051 34.5497 11.0037 34.2066 10.6607C34.043 10.5007 33.8285 10.4098 33.603 10.4098C33.603 10.4098 33.603 10.4098 33.5994 10.4098L30.4394 10.4171C29.9703 10.4171 29.5885 10.8025 29.5885 11.2716V11.5989L20.8466 11.6135L20.843 10.8243C20.843 10.5153 20.5921 10.2607 20.283 10.2607C20.2794 10.2607 20.2794 10.2607 20.2794 10.2607L18.2648 10.2643C17.9521 10.2643 17.7012 10.5188 17.7012 10.828L17.7048 11.617L16.4285 11.6207C15.9485 11.6207 15.5448 11.9225 15.3776 12.3407C15.2752 12.0164 15.7392 13.5129 14.2757 8.78072C14.2176 8.60245 14.1558 8.41708 14.1267 8.23882C13.9666 7.33708 13.139 7.26762 12.2212 7.17339L11.8939 5.76616C11.7921 5.33346 11.4612 5.00249 11.0248 4.90066C7.33393 4.05345 4.49393 5.94798 3.44302 6.80247C3.09756 7.08976 2.95212 7.53702 3.0612 7.9771L3.49029 9.64249C3.37392 9.7152 3.25756 9.79155 3.14483 9.86799C2.34847 10.4098 2.32301 11.0498 2.44302 11.4971C2.49554 11.6793 2.0713 10.2231 5.4321 21.617C5.4321 21.6207 5.43574 21.6243 5.43574 21.6279C5.43609 21.6291 5.43645 21.6303 5.4368 21.6316C4.32367 22.133 2.42046 23.1451 3.21392 24.0811C3.21428 24.0813 3.21257 24.0825 3.21392 24.0825C3.28055 24.5825 3.45378 25.3991 3.75574 26.3479C6.76949 35.7121 19.0342 40.9048 29.1594 35.057C32.2745 33.2826 34.7034 30.5849 35.9194 28.1516C36.3121 27.3734 36.6357 26.5734 36.9048 25.7152C36.9048 25.7116 36.9048 25.7116 36.9048 25.7116C37.5889 23.5008 37.75 21.2717 37.4976 18.9625ZM30.1339 11.2716C30.1339 11.1007 30.2721 10.9625 30.443 10.9625L33.603 10.9553C33.683 10.9553 33.763 10.9879 33.8212 11.0462C33.9557 11.1806 33.8978 11.3396 33.9121 11.5226L30.1339 11.5297V11.2716ZM34.1788 21.9157C34.7641 22.2702 34.8269 23.1028 34.2994 23.5412C34.0236 23.7706 33.6153 23.8876 33.375 24.2738C33.0075 24.8645 33.3599 25.5396 33.3823 26.078C33.4024 26.555 33.1176 27.036 32.6897 27.2481C32.2619 27.4597 31.7065 27.3949 31.3393 27.0904C30.9779 26.7898 30.5663 26.0128 29.8129 26.0822C29.5547 26.1064 29.3429 26.2363 29.1561 26.3509C28.9885 26.454 28.8491 26.5499 28.7064 26.5382C28.4629 26.5298 28.2712 26.2102 28.173 25.9141C27.7105 24.5162 28.1719 23.4902 28.1659 23.3308C30.4962 22.8011 32.5102 22.2129 34.0604 21.6146C34.031 21.7283 34.0733 21.8517 34.1788 21.9157ZM6.46559 18.1898C6.39048 17.7793 6.44179 17.2223 6.81058 16.8903C7.07887 16.6486 7.50944 16.5613 7.90451 16.6669C7.94382 16.6774 7.98197 16.6966 8.0209 16.7108C7.402 16.7281 6.92005 17.4516 7.33002 18.3942C7.48334 18.7468 7.70625 19.2203 8.08941 19.2309C7.7647 19.3905 7.44548 19.5598 7.12863 19.7339C7.10595 19.5863 6.59648 18.9043 6.46559 18.1898ZM9.47063 18.5662C9.48478 18.6102 9.48122 18.5913 9.48541 18.6029C9.46967 18.6094 9.45376 18.6154 9.43802 18.622C9.45183 18.6055 9.45935 18.5845 9.47063 18.5662ZM15.3121 17.5759C15.3122 17.6138 15.3195 20.3594 15.3194 20.3226C14.1984 20.0319 13.3433 20.8358 13.1872 21.9219C13.0445 22.8507 13.2839 23.7558 13.48 24.6753C12.9403 24.7059 12.6965 24.7219 11.6499 24.7516C11.6112 24.1844 11.3829 22.9751 11.1034 22.437C10.0515 20.4135 7.50364 20.8854 7.53839 23.0881C7.54791 23.6765 7.74793 24.2367 7.93323 24.737C7.89601 24.7351 7.542 24.7241 6.90484 24.6753C6.81191 24.3717 7.20887 25.7074 5.85781 21.127C8.68878 19.2655 11.9498 18.0447 15.3121 17.5759ZM11.853 16.2003C11.8461 15.783 11.9878 15.242 12.4061 14.9748C12.7103 14.7804 13.1479 14.7637 13.5221 14.9336C13.5592 14.9505 13.5937 14.9758 13.6299 14.996C13.0009 14.9098 12.4257 15.5607 12.6722 16.5435C12.7399 16.8133 12.8609 17.2626 13.1251 17.4288C12.8193 17.5005 12.5163 17.5821 12.2137 17.666C12.0365 17.1886 11.8612 16.6965 11.853 16.2003ZM14.7557 17.0638C14.763 17.1125 14.7634 17.0936 14.7666 17.1088C14.747 17.112 14.7273 17.1148 14.7076 17.118C14.7263 17.1025 14.7398 17.082 14.7557 17.0638ZM29.0539 16.1843C30.8184 19.1202 28.7094 22.9589 25.2176 22.9589C21.7166 22.9589 19.6046 19.1481 21.3521 16.1989C23.104 13.26 27.331 13.2942 29.0539 16.1843ZM8.47615 24.7588C8.48536 24.7113 8.48665 24.6619 8.46861 24.6133C8.28359 24.1149 8.09219 23.5996 8.08384 23.0794C8.07011 22.2074 8.61628 21.5456 9.47937 21.7259C9.19789 21.7442 9.01321 21.9677 8.94681 22.2287C8.82645 22.7022 9.09336 23.8844 9.24009 24.3906C9.28037 24.5297 9.33136 24.6722 9.42812 24.7771C8.85426 24.7771 8.5461 24.7612 8.47615 24.7588ZM14.3622 21.6722C14.3113 21.9414 14.3367 22.2177 14.384 22.4904C14.3905 22.5276 14.7499 24.4754 14.7874 24.5881C14.7653 24.5908 14.0514 24.6448 14.03 24.6389C13.8473 23.7679 13.5952 22.8578 13.7266 22.0021C13.847 21.1665 14.4557 20.5976 15.2807 20.8839C14.789 20.8298 14.4494 21.2271 14.3622 21.6722ZM35.723 20.2025C33.7676 21.2625 29.9873 22.2985 28.0976 22.6934C28.0796 22.7025 27.8809 22.7438 27.8612 22.748C30.1292 21.3462 30.8496 18.4379 29.6758 16.1843L35.7157 16.1734L35.723 20.2025ZM24.3885 23.4352C23.8094 23.5387 25.3681 23.3179 15.8721 24.508C15.8706 23.7661 15.8612 18.2816 15.8576 16.2061L20.7303 16.1989C19.1991 19.1838 21.0185 22.8839 24.3885 23.4352ZM18.2648 10.8098L20.2976 10.8243L20.3012 11.6135L18.2539 11.617L18.2648 10.8098ZM16.4285 12.1661C43.2991 12.1191 5.69628 12.1833 35.1303 12.1334C35.4467 12.1334 35.7085 12.3916 35.7121 12.7079L35.7157 15.6279L29.3485 15.6389C27.4155 12.76 23.081 12.6974 21.0539 15.6534L15.8576 15.6607C15.8575 15.6243 15.8537 13.7764 15.8539 13.8934L15.8503 12.7443C15.8503 12.4279 16.1085 12.1661 16.4285 12.1661ZM3.78847 7.22435C5.73562 5.64223 8.31387 4.83918 10.9012 5.43164C11.1339 5.48615 11.3085 5.66069 11.363 5.88974L11.6503 7.13708C8.97401 7.04002 6.28236 7.95673 3.97755 9.34074L3.58848 7.84251C3.53029 7.60973 3.60666 7.37341 3.78847 7.22435ZM2.96665 11.3516C2.79218 10.6898 3.34787 10.3588 3.95212 9.99885C6.47109 8.3974 9.64479 7.36829 12.5703 7.76252C13.2248 7.84615 13.5157 7.92978 13.5885 8.33346C13.6248 8.54794 13.6903 8.7516 13.7557 8.95162C13.7677 8.99029 14.4046 11.0466 14.3928 11.0084C14.1339 11.037 13.8755 11.07 13.6177 11.1069C13.5305 10.5617 13.4007 10.1273 13.208 9.75675C12.1619 7.74655 9.60671 8.18341 9.6435 10.4098C9.65227 10.9421 9.81735 11.4498 9.98619 11.9127C9.41359 12.0861 8.84687 12.2788 8.2883 12.4931C7.95206 11.5042 7.38231 10.6085 6.3816 10.3404C5.08337 9.99366 3.99565 11.0176 4.26513 12.4885C4.37295 13.078 4.67129 13.6072 4.94015 14.0766C4.60501 14.2672 4.27427 14.4656 3.94856 14.672C3.55298 13.3396 3.45105 12.9761 2.96665 11.3516ZM10.5105 11.759C10.3478 11.3153 10.1965 10.8603 10.189 10.4009C10.182 9.98367 10.3237 9.44265 10.742 9.17543C11.0466 8.98101 11.4842 8.96467 11.858 9.13424C11.8951 9.1511 11.9296 9.17632 11.9657 9.19656C11.3538 9.11261 10.7581 9.74675 11.0082 10.7441C11.066 10.9747 11.1632 11.3361 11.3546 11.5408C11.0721 11.609 10.7905 11.6809 10.5105 11.759ZM5.41778 13.8129C5.15815 13.3601 4.89343 12.8921 4.8017 12.3903C4.72642 11.9799 4.77756 11.4229 5.14652 11.0907C5.41516 10.8491 5.84449 10.7615 6.24062 10.8674C6.28004 10.8779 6.31828 10.8972 6.35728 10.9113C5.73981 10.9286 5.25588 11.6519 5.66603 12.5948C5.77494 12.8452 5.96308 13.2578 6.24222 13.3869C5.96457 13.5234 5.69004 13.666 5.41778 13.8129ZM4.10865 15.2104C4.86697 14.8217 8.58738 12.1727 14.5552 11.539C14.8442 12.4682 15.0432 13.1116 15.3085 13.9516C15.3085 13.9896 15.3121 17.0609 15.3121 17.0242C15.308 17.0247 15.3039 17.0255 15.2998 17.0261C15.0706 14.6326 13.2351 13.7981 12.1124 14.5151C11.6041 14.8398 11.2957 15.489 11.3076 16.2092C11.317 16.779 11.5055 17.3225 11.6862 17.8114C11.113 17.9846 10.5484 18.1836 9.99005 18.3995C9.65893 17.3744 9.08669 16.4183 8.04549 16.1399C6.74137 15.7914 5.66097 16.8222 5.92901 18.288C6.03963 18.8919 6.35018 19.4332 6.62397 19.911C6.63957 19.9382 6.66463 19.9544 6.68702 19.9738C6.35162 20.1678 6.0236 20.3736 5.69857 20.584C5.18875 18.8846 4.18873 15.4893 4.10865 15.2104ZM9.26175 33.2211C9.41598 32.0481 9.98987 30.9113 10.8452 30.095C11.0338 29.9151 11.2854 29.7056 11.5593 29.6811C11.9295 29.6481 12.2713 29.9663 12.4489 30.2489C12.8678 30.917 13.0543 32.3255 14.1962 32.5833C14.9665 32.7563 15.6301 32.2101 16.2239 31.9148C16.6897 31.6832 17.3175 31.6369 17.565 32.0062C17.7344 32.2591 17.6952 32.641 17.4386 33.2152C16.937 34.3376 16.8755 35.0266 17.9752 35.7232C18.2368 35.8858 18.5268 36.0516 18.6953 36.2667C18.8282 36.4363 18.8956 36.7045 18.7786 36.8604C18.7551 36.8917 18.7401 36.9264 18.7317 36.9623C15.2435 36.6936 11.8543 35.2906 9.26175 33.2211ZM36.3848 25.5516C34.1159 32.8377 26.3091 37.334 19.3202 36.9952C19.4681 36.6285 19.3402 36.2053 19.1247 35.9304C18.8965 35.6392 18.5871 35.4614 18.2671 35.2626C17.4456 34.742 17.5223 34.3647 17.9397 33.4309C18.152 32.9556 18.3912 32.2596 18.0181 31.7028C17.5933 31.068 16.6719 31.0829 15.9812 31.4263C15.3891 31.7209 14.8452 32.1712 14.3163 32.0513C13.5208 31.8714 13.3576 30.6709 12.9109 29.9592C12.6391 29.5259 12.1298 29.0831 11.5109 29.1378C11.0686 29.1772 10.7216 29.4592 10.4688 29.7005C9.59203 30.537 9.00203 31.6332 8.77589 32.8186C8.77527 32.8181 8.77454 32.8176 8.77392 32.817C6.11491 30.5546 4.38525 27.507 3.84665 24.5479C3.84301 24.5407 3.84301 24.5334 3.84301 24.5261V24.5229C4.68856 24.922 5.80463 25.0603 6.57756 25.1734C6.66912 25.2192 6.66884 25.1969 7.44581 25.2614C11.2273 25.5807 15.823 25.246 19.5913 24.7995C22.0865 24.4689 24.4054 24.1533 27.5807 23.4609C27.3533 24.3186 27.3761 25.2419 27.6552 26.0854C27.8603 26.7042 28.2365 27.0678 28.6879 27.0833C29.2215 27.1052 29.5225 26.6573 29.8635 26.6252C30.2858 26.5843 30.6027 27.1871 30.9908 27.5099C31.5266 27.9545 32.3067 28.0463 32.9319 27.7367C33.5565 27.4274 33.9565 26.7516 33.9274 26.0552C33.9187 25.8482 33.8759 25.6451 33.8347 25.4485C33.6629 24.6326 33.762 24.5185 34.2738 24.2125C34.3988 24.1378 34.5281 24.0604 34.6481 23.9606C35.4582 23.2875 35.37 22.0061 34.4672 21.453C35.2755 21.1224 36.4131 20.6026 37.0321 19.9901C37.0194 20.4788 37.2692 22.6937 36.3848 25.5516Z" fill="#BA6827"/>
<path d="M24.8211 21.4685C26.6561 21.7675 28.3197 20.3331 28.3157 18.4758C28.3072 16.3641 26.1944 14.9052 24.2211 15.6503C24.2175 15.654 24.2175 15.654 24.2138 15.654C23.8793 15.7813 23.5775 15.9667 23.312 16.1994C21.3757 17.8513 22.2656 21.0769 24.8211 21.4685ZM24.6647 17.5485C24.5375 17.6758 24.3738 17.7412 24.1702 17.7086C23.5848 17.6173 23.5221 16.8158 24.0575 16.6139C24.6453 16.4071 25.0794 17.1195 24.6647 17.5485ZM25.4975 18.5667C25.2847 18.5373 25.2434 18.2325 25.4575 18.1521C25.4793 18.1413 25.5011 18.1376 25.5302 18.1376C25.6502 18.1376 25.7484 18.2358 25.7484 18.3521C25.7484 18.4721 25.6502 18.5703 25.5266 18.5703C25.4902 18.5658 25.4611 18.5621 25.4975 18.5667Z" fill="#BA6827"/>
<path d="M17.7534 14.8938C18.1146 14.8933 18.4069 14.6 18.4063 14.2388C18.4057 13.8777 18.1124 13.5854 17.7513 13.5859C17.3901 13.5866 17.0978 13.8798 17.0984 14.241C17.099 14.6022 17.3923 14.8944 17.7534 14.8938Z" fill="#BA6827"/>
<path d="M31.0175 15.0027L33.8284 14.9954C34.2046 14.9954 34.4902 14.6923 34.4902 14.3335V13.7009C34.4902 13.3464 34.2067 13.0391 33.8284 13.0391C33.7905 13.0391 30.9771 13.0427 31.0139 13.0427C30.8393 13.0427 30.6721 13.1118 30.5484 13.2391C30.2483 13.5305 30.3869 13.8745 30.3557 14.3408C30.3557 14.7045 30.6539 15.0027 31.0175 15.0027ZM31.0175 13.5882C33.8952 13.6027 33.8596 13.5521 33.9084 13.6173C33.9784 13.6868 33.9259 13.7258 33.9448 14.3335C33.9448 14.3991 33.8939 14.4499 33.8284 14.4499L31.0175 14.4572C30.9521 14.4572 30.9012 14.4027 30.9012 14.3373L30.8975 13.7045C30.8975 13.6421 30.949 13.5882 31.0175 13.5882Z" fill="#BA6827"/>
<path d="M5.49333 5.09098C5.73105 5.09098 5.85597 4.80417 5.69113 4.63058L5.07003 3.97557C4.96634 3.86637 4.79358 3.86193 4.68438 3.96527C4.57518 4.06897 4.57057 4.24155 4.67408 4.35093C5.26391 4.93515 5.29204 5.09098 5.49333 5.09098Z" fill="#BA6827"/>
<path d="M6.58449 4.51451C6.73364 4.49392 6.83804 4.35649 6.81763 4.20716L6.71003 3.42307C6.68943 3.27392 6.55236 3.17005 6.40268 3.18994C6.25353 3.21054 6.14912 3.34796 6.16954 3.49729L6.27714 4.28138C6.29694 4.42504 6.42787 4.53437 6.58449 4.51451Z" fill="#BA6827"/>
<path d="M32.6116 29.1839C32.4852 29.1026 32.3163 29.139 32.2348 29.266C30.9236 31.307 28.9376 32.8631 26.6421 33.6472C26.4997 33.696 26.4236 33.851 26.4722 33.9936C26.5218 34.1381 26.6787 34.2117 26.8186 34.1634C29.2298 33.3395 31.3163 31.7049 32.6936 29.5607C32.7751 29.4339 32.7384 29.2653 32.6116 29.1839Z" fill="#BA6827"/>
<path d="M25.7924 34.1904L25.0008 34.4981C24.8606 34.5528 24.791 34.7108 24.8455 34.8513C24.9008 34.9931 25.0599 35.0604 25.1986 35.0066L25.9898 34.6989C26.1303 34.6442 26.1999 34.4862 26.1454 34.3459C26.0909 34.2053 25.9319 34.1361 25.7924 34.1904Z" fill="#BA6827"/>
</svg>
