<svg width="60" height="60" viewBox="0 0 60 60" fill="none" xmlns="http://www.w3.org/2000/svg">
<g clip-path="url(#clip0_670_2020)">
<path fill-rule="evenodd" clip-rule="evenodd" d="M34.6726 15.2487C34.4055 15.2487 34.1485 15.1396 33.957 14.9378C33.7973 14.7698 33.6982 14.5716 33.5167 14.2119C33.1975 13.5769 32.6028 12.3924 31.3729 10.8349C30.8639 10.1898 30.6589 9.96967 30.5144 9.82696C30.4019 9.71611 30.1145 9.44729 29.7012 9.14314C29.3888 9.51113 29.0309 9.82191 28.631 10.0705C27.4431 10.8115 26.2755 10.7829 25.3363 10.7611L25.2708 10.7594C25.2422 10.7594 22.376 10.6939 19.3166 10.9056C17.1509 11.0551 16.5159 11.3188 16.0522 11.5743C15.6304 11.8077 14.8459 12.2413 14.4846 13.0443C14.3283 13.3905 14.283 13.7297 14.2444 14.0019C14.2242 14.1532 14.2057 14.2842 14.1705 14.4151C14.0175 14.9763 13.5874 15.2081 13.2363 15.2366C13.0246 15.2551 12.4954 15.2248 12.1359 14.5663C12.0453 14.4 11.9578 14.1832 11.8772 13.9245C11.7293 13.4541 11.6101 12.866 11.5496 12.3099C11.3229 10.2517 11.8688 8.56501 12.2132 7.74342C12.4366 7.21084 13.1088 5.82647 14.5132 4.46725C16.9459 2.11679 19.8525 1.51363 21.7763 1.11377C23.3808 0.781119 24.5031 0.732425 25.9143 0.700558C27.0132 0.675317 28.3118 0.722433 29.6256 1.26669C30.2977 1.54382 30.7883 1.87489 31.1713 2.30841C31.4637 2.64106 31.5812 2.90157 31.7172 3.20225C31.7878 3.35685 31.8668 3.53323 31.9944 3.77848C32.3136 4.385 32.5068 4.75289 32.826 5.08386C32.9704 5.23342 33.0259 5.26539 33.2309 5.38623C33.4493 5.51559 33.7483 5.69038 34.2457 6.06332C34.8572 6.52197 35.2621 6.82612 35.699 7.35197C35.9779 7.68968 36.5609 8.3919 36.7911 9.4353C36.939 10.1006 36.8701 10.6248 36.7558 11.4935C36.6818 12.0547 36.3021 13.0845 36.1863 13.3853C35.6956 14.674 35.447 15.0469 34.98 15.1981C34.881 15.232 34.7751 15.2487 34.6726 15.2487ZM29.4711 6.94412C29.9365 6.94412 30.3397 7.2264 30.5951 7.40456L30.6219 7.42307C31.2318 7.84638 31.6652 8.24456 31.8685 8.44459C32.0885 8.65967 32.3473 8.94531 32.8934 9.63586C33.6595 10.6069 34.2021 11.4453 34.5919 12.1174C34.7196 11.746 34.8186 11.4101 34.8405 11.242C34.9446 10.4406 34.9749 10.1718 34.9043 9.85262C34.775 9.26619 34.4356 8.85802 34.2122 8.58752C33.9215 8.23636 33.6427 8.02812 33.0883 7.61133C32.6784 7.30381 32.4431 7.16435 32.2533 7.0535C32.0013 6.90563 31.7644 6.76628 31.4368 6.42521C30.9259 5.89599 30.6438 5.35836 30.2859 4.6779C30.1296 4.38048 30.0305 4.15878 29.9566 3.99745C29.8441 3.74883 29.8205 3.69845 29.7231 3.5876C29.6005 3.44814 29.3955 3.26325 28.8897 3.05333C27.9103 2.64843 26.9039 2.61309 25.9613 2.63339C24.6121 2.66357 23.6192 2.70732 22.1726 3.00632C20.3648 3.38104 17.89 3.89512 15.8606 5.85739C14.6812 6.99818 14.1368 8.16074 13.999 8.49013C13.7806 9.00926 13.4631 9.96189 13.4345 11.1531C13.5975 10.97 13.7772 10.7952 13.9755 10.6322C14.4173 10.266 14.8542 10.024 15.1163 9.87954C15.9344 9.42584 16.8636 9.13357 19.1838 8.97234C22.3373 8.7539 25.1986 8.81942 25.3179 8.82279L25.3851 8.82447C26.1697 8.84298 26.9123 8.86139 27.6062 8.42798C27.9691 8.20123 28.28 7.87867 28.5287 7.46861C28.685 7.20989 28.9336 7.03173 29.2309 6.96789C29.3131 6.95075 29.3921 6.94412 29.4711 6.94412Z" fill="#BA6827"/>
<path fill-rule="evenodd" clip-rule="evenodd" d="M24.2007 31.3593C23.5505 31.3593 22.8113 31.2971 22.015 31.1207C21.306 30.9644 19.4596 30.4402 17.6467 28.955C16.7781 28.2427 15.1837 26.6717 14.2781 24.1516C14.0312 23.4644 13.8698 22.7253 13.7774 22.2195C13.1439 21.9356 12.5627 21.5072 12.0703 20.9578C11.4421 20.2556 11.0035 19.4055 10.8036 18.4999C10.397 16.6585 11.022 14.8506 12.5189 13.5436C12.9221 13.1924 13.5337 13.2327 13.8848 13.636C14.2359 14.0393 14.1956 14.6508 13.7923 15.0019C12.4936 16.1359 12.5457 17.4195 12.6935 18.0832C12.9556 19.2693 13.8476 20.2741 14.9129 20.5832C15.2809 20.6907 15.5513 21.0031 15.6017 21.3829C15.6756 21.9256 15.8486 22.8059 16.099 23.4998C16.8753 25.6603 18.2982 26.9893 18.8728 27.4615C20.3631 28.6812 21.8584 29.108 22.4312 29.2356C24.0643 29.5951 25.4101 29.3582 25.9141 29.2389C27.2884 28.9146 28.2141 28.2762 28.6107 28.004C28.8963 27.8075 29.6423 27.253 30.4016 26.3541C31.4986 25.0554 32.3069 23.2895 32.7437 21.2449C32.826 20.8568 33.1385 20.5577 33.53 20.4922C33.9567 20.42 34.4222 20.052 34.8052 19.4843C35.2218 18.8643 35.4924 18.0848 35.5461 17.3472C35.6032 16.5576 35.4454 15.5428 34.3634 15.195C33.8544 15.032 33.5754 14.486 33.7385 13.9769C33.9015 13.4679 34.4474 13.189 34.9566 13.352C35.8738 13.6477 36.5879 14.234 37.0197 15.0505C37.3843 15.7377 37.5422 16.5793 37.4768 17.485C37.3995 18.5485 37.0114 19.6707 36.4116 20.5629C35.8824 21.3493 35.2221 21.9171 34.5081 22.211C33.9789 24.3531 33.0968 26.1643 31.8821 27.6024C31.0051 28.6407 30.1449 29.2975 29.7097 29.5966C29.2661 29.9008 28.0884 30.7122 26.3613 31.1205C25.8959 31.2281 25.1416 31.3593 24.2007 31.3593Z" fill="#BA6827"/>
<path fill-rule="evenodd" clip-rule="evenodd" d="M18.4127 35.0696C18.2682 35.0696 18.122 35.0376 17.9827 34.9688C17.5038 34.732 17.3073 34.1507 17.5458 33.6719C17.8432 33.0721 18.3472 31.8691 18.3825 30.5468C18.396 30.0277 18.3288 29.7907 18.2179 29.3959C18.1877 29.29 18.154 29.1692 18.1187 29.0365C17.9859 28.519 18.2984 27.9914 18.816 27.8586C19.3334 27.7259 19.861 28.0384 19.9938 28.5559C20.0224 28.6634 20.0509 28.7676 20.0795 28.8684C20.2072 29.3187 20.3399 29.7841 20.3181 30.5972C20.2745 32.2908 19.6494 33.7893 19.2815 34.5303C19.1117 34.873 18.7688 35.0696 18.4127 35.0696Z" fill="#BA6827"/>
<path fill-rule="evenodd" clip-rule="evenodd" d="M30.1411 35.703C29.8118 35.703 29.4926 35.535 29.3111 35.2343C28.6727 34.1725 27.9015 32.5058 27.851 30.5972C27.8291 29.7823 27.9619 29.317 28.0896 28.8684C28.1183 28.7676 28.1468 28.6651 28.1754 28.5559C28.3081 28.0385 28.8356 27.7259 29.3532 27.8586C29.8707 27.9914 30.1832 28.5189 30.0504 29.0365C30.0169 29.1675 29.9816 29.2884 29.9513 29.3959C29.8404 29.7891 29.7715 30.0276 29.7866 30.5468C29.8253 32.0354 30.4519 33.3761 30.9693 34.238C31.2449 34.6966 31.097 35.2914 30.6384 35.5653C30.4822 35.6578 30.3107 35.703 30.1411 35.703Z" fill="#BA6827"/>
<path fill-rule="evenodd" clip-rule="evenodd" d="M48.4139 59.3118H0.968107C0.435522 59.3118 0.00200852 58.88 0.00043096 58.3475C-0.00966543 54.9738 0.144935 46.5415 1.82672 41.1182C2.2737 39.68 2.81459 38.5057 3.52859 37.4237C4.12838 36.5165 5.85897 34.2349 8.95025 32.664C11.7829 31.2225 14.493 31.0091 16.2671 31.083C16.499 31.0931 16.7208 31.1856 16.8887 31.3451L24.4879 38.4804L32.5069 31.33C32.6732 31.1804 32.8866 31.0947 33.1118 31.0846C34.8859 31.0107 37.5942 31.2256 40.4286 32.6655C43.52 34.238 45.2504 36.518 45.8502 37.4252C46.5659 38.5072 47.1069 39.68 47.5521 41.1198C48.325 43.608 48.8626 47.0119 49.1515 51.2322C49.3078 53.5104 49.3868 55.97 49.3783 58.3474C49.38 58.8818 48.9466 59.3118 48.4139 59.3118ZM24.6323 57.3764H47.4445C47.4311 55.3502 47.3554 53.2905 47.2227 51.3651C46.9438 47.2926 46.433 44.0382 45.7055 41.6928C45.309 40.4176 44.8571 39.4297 44.2371 38.4921C43.7214 37.7125 42.2328 35.7519 39.5513 34.3894C37.2664 33.2267 35.0706 32.9832 33.5333 33.0067L25.116 40.5116C24.7413 40.8442 24.1752 40.8375 23.8089 40.4948L15.8335 33.0049C14.2979 32.9847 12.1087 33.2283 9.82874 34.3876C7.14731 35.7501 5.65883 37.7108 5.14296 38.4903C4.52298 39.4278 4.07106 40.414 3.67457 41.6892C2.9471 44.0346 2.43629 47.289 2.15738 51.3615C2.02465 53.287 1.94903 55.3468 1.93557 57.3729L24.6323 57.3764Z" fill="#BA6827"/>
<path fill-rule="evenodd" clip-rule="evenodd" d="M10.1513 59.3071C9.617 59.3071 9.18359 58.8736 9.18359 58.3394V47.1786C9.18359 46.6443 9.61711 46.2109 10.1513 46.2109C10.6854 46.2109 11.1189 46.6443 11.1189 47.1786V58.3394C11.1192 58.8737 10.6856 59.3071 10.1513 59.3071Z" fill="#BA6827"/>
<path fill-rule="evenodd" clip-rule="evenodd" d="M40.0102 59.3071C39.4759 59.3071 39.0425 58.8736 39.0425 58.3394V47.1786C39.0425 46.6443 39.4759 46.2109 40.0102 46.2109C40.5444 46.2109 40.9778 46.6443 40.9778 47.1786V58.3394C40.9779 58.8737 40.5444 59.3071 40.0102 59.3071Z" fill="#BA6827"/>
<path fill-rule="evenodd" clip-rule="evenodd" d="M43.9027 31.3875C43.3685 31.3875 42.9351 30.9541 42.9351 30.4198V2.97549C42.9351 2.44122 43.3685 2.00781 43.9027 2.00781C44.437 2.00781 44.8704 2.44133 44.8704 2.97549V30.4198C44.8705 30.9539 44.437 31.3875 43.9027 31.3875Z" fill="#BA6827"/>
<path fill-rule="evenodd" clip-rule="evenodd" d="M59.032 17.9927H43.9027C43.3685 17.9927 42.9351 17.5593 42.9351 17.025V5.35845C42.9351 4.98888 43.1451 4.65286 43.4761 4.48984C43.807 4.32683 44.2018 4.36721 44.4942 4.59238L59.6234 16.2589C59.951 16.5109 60.0821 16.9461 59.9478 17.3375C59.815 17.729 59.4453 17.9927 59.032 17.9927ZM44.8705 16.0573H56.1926L44.8705 7.32756V16.0573Z" fill="#BA6827"/>
<path fill-rule="evenodd" clip-rule="evenodd" d="M29.4777 55.8129H19.4105C18.8763 55.8129 18.4429 55.3794 18.4429 54.8453V42.9989C18.4429 42.4647 18.8763 42.0312 19.4105 42.0312H29.4777C30.012 42.0312 30.4454 42.4647 30.4454 42.9989V54.8453C30.4454 55.3811 30.0136 55.8129 29.4777 55.8129ZM20.38 53.8775H28.5116V43.9666H20.38V53.8775Z" fill="#BA6827"/>
<path fill-rule="evenodd" clip-rule="evenodd" d="M26.2067 47.0291H22.6835C22.1492 47.0291 21.7158 46.5957 21.7158 46.0614C21.7158 45.5272 22.1492 45.0938 22.6835 45.0938H26.2067C26.741 45.0938 27.1744 45.5272 27.1744 46.0614C27.1744 46.5957 26.741 47.0291 26.2067 47.0291Z" fill="#BA6827"/>
<path fill-rule="evenodd" clip-rule="evenodd" d="M26.2067 49.8885H22.6835C22.1492 49.8885 21.7158 49.4551 21.7158 48.9208C21.7158 48.3865 22.1492 47.9531 22.6835 47.9531H26.2067C26.741 47.9531 27.1744 48.3865 27.1744 48.9208C27.1744 49.4551 26.741 49.8885 26.2067 49.8885Z" fill="#BA6827"/>
<path fill-rule="evenodd" clip-rule="evenodd" d="M26.2067 52.7479H22.6835C22.1492 52.7479 21.7158 52.3144 21.7158 51.7802C21.7158 51.2459 22.1492 50.8125 22.6835 50.8125H26.2067C26.741 50.8125 27.1744 51.2459 27.1744 51.7802C27.1744 52.3144 26.741 52.7479 26.2067 52.7479Z" fill="#BA6827"/>
<path fill-rule="evenodd" clip-rule="evenodd" d="M19.4121 43.9603C19.0828 43.9603 18.7619 43.7922 18.5805 43.4898L12.1626 32.7859C11.8871 32.3272 12.0366 31.7325 12.4953 31.4585C12.9539 31.183 13.5487 31.3325 13.8226 31.7912L20.2406 42.495C20.5161 42.9537 20.3666 43.5484 19.9079 43.8224C19.7532 43.9166 19.5818 43.9603 19.4121 43.9603Z" fill="#BA6827"/>
<path fill-rule="evenodd" clip-rule="evenodd" d="M29.4777 43.9593C29.3081 43.9593 29.1366 43.9156 28.9804 43.8216C28.5217 43.5461 28.3738 42.9529 28.6477 42.4943L35.0656 31.7904C35.3412 31.3318 35.9342 31.1839 36.393 31.4578C36.8516 31.7333 36.9995 32.3264 36.7257 32.7851L30.3077 43.489C30.1279 43.7912 29.807 43.9593 29.4777 43.9593Z" fill="#BA6827"/>
</g>
<defs>
<clipPath id="clip0_670_2020">
<rect width="60" height="60" fill="white"/>
</clipPath>
</defs>
</svg>
