<svg width="146" height="146" viewBox="0 0 146 146" fill="none" xmlns="http://www.w3.org/2000/svg">
<path d="M79.6012 0.249149C80.9715 0.373723 81.9681 0.622872 82.591 1.12117C83.2139 1.61947 83.463 2.24234 83.463 3.23893C83.463 3.86181 83.2138 4.3601 82.8401 4.73383C82.4664 5.10755 81.9681 5.3567 81.2207 5.3567V5.48127C81.719 5.60585 82.0927 5.73042 82.3418 5.97957C82.591 6.22872 82.9647 6.47787 83.0893 6.85159C83.2138 7.22531 83.3384 7.72361 83.2139 8.22191C83.0893 9.2185 82.7156 9.84138 81.9681 10.3397C81.2207 10.838 80.3486 10.9625 79.2275 10.838L75.4902 10.4642L76.4868 0L79.6012 0.249149ZM77.3589 5.73042L76.9851 9.59223L79.1029 9.84138C80.0995 9.96595 80.7224 9.84138 81.0961 9.46765C81.4698 9.09393 81.719 8.72021 81.8435 8.09733C81.8435 7.59904 81.719 7.10074 81.3452 6.72702C80.9715 6.22872 80.3486 6.10414 79.352 5.97957L77.3589 5.73042ZM79.352 4.8584C80.2241 4.98298 80.8469 4.8584 81.2207 4.60925C81.5944 4.3601 81.8435 3.98638 81.8435 3.36351C81.8435 2.74064 81.719 2.36691 81.3452 1.99319C80.9715 1.74404 80.3486 1.49489 79.352 1.37032L77.7326 1.24574L77.3589 4.60925L79.352 4.8584Z" fill="white"/>
<path d="M95.0489 8.84442C94.7997 9.96559 94.3014 10.8376 93.8031 11.4605C93.1803 12.2079 92.5574 12.5816 91.6854 12.9554C90.8133 13.2045 89.9413 13.2045 88.9447 12.9554C87.8236 12.7062 87.0761 12.2079 86.4532 11.5851C85.8304 10.9622 85.4566 10.2147 85.3321 9.34271C85.2075 8.47069 85.3321 7.4741 85.5812 6.35293C85.8304 5.23176 86.3287 4.35974 86.827 3.73687C87.3253 3.114 88.0727 2.6157 88.9447 2.36655C89.8168 2.1174 90.6888 2.1174 91.8099 2.36655C92.8065 2.6157 93.6786 3.114 94.1769 3.73687C94.7997 4.35974 95.1735 5.10719 95.298 5.97921C95.4226 6.85123 95.298 7.72325 95.0489 8.84442ZM86.9515 6.72665C86.5778 7.9724 86.5778 9.09356 86.9515 9.96559C87.3253 10.8376 88.0727 11.4605 89.1939 11.7096C90.315 12.0833 91.3116 11.8342 92.0591 11.2113C92.8065 10.5885 93.3048 9.71644 93.6786 8.34612C94.0523 7.10037 94.0523 5.97921 93.6786 5.10718C93.3048 4.23516 92.5574 3.61229 91.4362 3.36314C90.3151 3.114 89.3185 3.23857 88.571 3.73687C87.8236 4.35974 87.3253 5.35633 86.9515 6.72665Z" fill="white"/>
<path d="M106.136 13.8268C105.637 14.8233 105.139 15.5708 104.392 16.1937C103.644 16.8165 102.897 17.0657 102.025 17.1903C101.153 17.3148 100.281 17.0657 99.2841 16.692C98.2875 16.1937 97.6646 15.5708 97.1663 14.9479C96.668 14.3251 96.4189 13.453 96.5435 12.4564C96.5435 11.5844 96.7926 10.5878 97.2909 9.59123C97.7892 8.59463 98.2875 7.84718 99.035 7.22431C99.6578 6.60144 100.405 6.35229 101.277 6.22772C102.149 6.10314 103.021 6.35229 104.018 6.72602C105.015 7.22431 105.637 7.72261 106.136 8.47006C106.634 9.2175 106.883 9.96495 106.759 10.9615C106.883 11.8336 106.634 12.8302 106.136 13.8268ZM98.5367 10.2141C97.9138 11.4598 97.7892 12.4564 97.9138 13.453C98.0384 14.4496 98.7858 15.0725 99.7824 15.5708C100.904 16.0691 101.9 16.0691 102.648 15.6954C103.52 15.1971 104.142 14.4496 104.765 13.2039C105.388 11.9581 105.513 10.9615 105.388 9.96495C105.264 9.09293 104.516 8.34548 103.52 7.84718C102.398 7.34889 101.402 7.34889 100.654 7.72261C99.7824 8.22091 99.035 8.96835 98.5367 10.2141Z" fill="white"/>
<path d="M111.867 24.0404L110.621 23.1684L110.372 16.8151L108.877 16.9397L106.51 20.3032L105.389 19.5557L111.368 10.7109L112.489 11.4584L109.624 15.9431C110.122 15.8185 110.496 15.6939 110.995 15.5693C111.493 15.4448 111.867 15.3202 112.365 15.1956L116.6 14.199L117.846 15.071L111.742 16.5659L111.867 24.0404Z" fill="white"/>
<path d="M120.087 32.0165L118.966 30.8954L121.208 20.5557C120.959 20.8048 120.71 21.1786 120.336 21.5523C119.962 21.926 119.589 22.2997 119.215 22.6735L114.979 26.909L114.107 26.037L121.706 18.5625L122.828 19.6837L120.585 29.8988C120.71 29.7742 120.834 29.6496 121.084 29.4005C121.333 29.1513 121.582 28.9022 121.831 28.653C122.08 28.4039 122.329 28.1547 122.578 27.9056L126.814 23.67L127.686 24.5421L120.087 32.0165Z" fill="white"/>
<path d="M131.3 38.3707C130.428 38.9936 129.431 39.3673 128.559 39.6165C127.687 39.8656 126.815 39.741 126.067 39.3673C125.32 38.9936 124.573 38.3707 123.95 37.4987C123.327 36.6267 122.953 35.7546 122.953 34.8826C122.953 34.0106 123.078 33.2632 123.576 32.3911C124.074 31.6437 124.697 30.8962 125.694 30.2734C126.566 29.6505 127.438 29.2768 128.31 29.0276C129.182 28.9031 130.054 28.9031 130.801 29.2768C131.549 29.6505 132.296 30.2734 132.919 31.1454C133.542 32.0174 133.916 32.8894 133.916 33.7615C133.916 34.6335 133.791 35.3809 133.293 36.2529C132.795 37.125 132.172 37.7478 131.3 38.3707ZM126.441 31.5191C125.32 32.2666 124.573 33.1386 124.323 34.0106C124.074 34.8826 124.199 35.8792 124.946 36.8758C125.694 37.8724 126.441 38.3707 127.438 38.3707C128.434 38.3707 129.431 37.997 130.552 37.2495C131.673 36.5021 132.421 35.6301 132.67 34.7581C132.919 33.886 132.795 32.8894 132.047 31.8928C131.3 30.8962 130.552 30.3979 129.556 30.3979C128.559 30.2734 127.562 30.6471 126.441 31.5191Z" fill="white"/>
<path d="M142.509 49.8324L131.546 51.5765L131.048 50.3307L136.654 45.5969C136.903 45.3478 137.152 45.2232 137.401 44.974C137.65 44.7249 137.899 44.6003 138.024 44.4757C138.148 44.3512 138.398 44.2266 138.398 44.2266C138.273 44.2266 138.024 44.3512 137.526 44.4757C137.027 44.6003 136.654 44.6003 136.155 44.7249L128.93 45.7215L128.432 44.4757L137.027 37.375L137.65 38.6207L132.293 42.7317C131.92 42.9808 131.546 43.3546 131.172 43.6037C130.799 43.8529 130.425 44.102 130.176 44.2266C130.549 44.102 130.923 43.9774 131.421 43.9774C131.92 43.8529 132.293 43.8529 132.792 43.7283L139.394 42.8563L139.892 44.102L134.785 48.4621C134.411 48.8358 134.037 49.085 133.664 49.3341C133.29 49.5833 132.916 49.8324 132.667 50.0816C133.041 49.957 133.415 49.8324 133.913 49.8324C134.411 49.8324 134.785 49.7079 135.283 49.5833L141.886 48.4621L142.509 49.8324Z" fill="white"/>
<path d="M0.249149 66.3931C0.373723 65.0227 0.622872 64.0261 1.12117 63.4033C1.61947 62.7804 2.24234 62.5312 3.23893 62.5312C3.86181 62.5312 4.3601 62.7804 4.73383 63.1541C5.10755 63.5278 5.3567 64.0261 5.3567 64.7736H5.48127C5.60585 64.2753 5.73042 63.9016 5.97957 63.6524C6.22872 63.2787 6.47787 63.0295 6.85159 62.905C7.22531 62.7804 7.72361 62.6558 8.22191 62.7804C9.2185 62.905 9.84138 63.2787 10.3397 64.0261C10.838 64.7736 10.9625 65.6456 10.838 66.7668L10.4642 70.504L0 69.3828L0.249149 66.3931ZM4.8584 66.5176C4.98298 65.6456 4.8584 65.0227 4.60925 64.649C4.3601 64.2753 3.98638 64.0261 3.36351 64.0261C2.74064 64.0261 2.36691 64.1507 1.99319 64.5244C1.74404 64.8982 1.49489 65.521 1.37032 66.5176L1.24574 68.1371L4.60925 68.5108L4.8584 66.5176ZM5.73042 68.6354L9.59223 69.0091L9.84138 66.8914C9.96595 65.8948 9.84138 65.2719 9.46765 64.8982C9.09393 64.5244 8.72021 64.1507 8.09733 64.1507C7.59904 64.1507 7.10074 64.2753 6.72702 64.649C6.35329 65.0227 6.10414 65.6456 5.97957 66.6422L5.73042 68.6354Z" fill="white"/>
<path d="M8.84637 50.8215C9.96754 51.0706 10.8396 51.5689 11.4624 52.0672C12.2099 52.6901 12.5836 53.3129 12.9573 54.185C13.331 55.057 13.2065 55.929 12.9573 56.9256C12.7082 58.0468 12.2099 58.7942 11.587 59.4171C10.9641 60.04 10.2167 60.4137 9.34467 60.5383C8.47265 60.6628 7.47605 60.5383 6.35488 60.2891C5.23371 60.04 4.36169 59.5417 3.73882 59.0434C2.99137 58.5451 2.61765 57.7976 2.3685 56.9256C2.11935 56.0536 2.11935 55.1816 2.3685 54.0604C2.49308 53.1884 2.99137 52.3164 3.61425 51.6935C4.23712 51.0706 4.98456 50.6969 5.85658 50.5723C6.72861 50.4477 7.7252 50.5723 8.84637 50.8215ZM6.72861 59.0434C7.97435 59.4171 9.09552 59.4171 9.96754 59.0434C10.8396 58.6696 11.4624 57.9222 11.7116 56.801C12.0853 55.6799 11.8362 54.6833 11.2133 53.9358C10.5904 53.1884 9.71839 52.6901 8.34807 52.3164C7.10233 51.9426 5.98116 51.9426 5.10914 52.3164C4.23712 52.6901 3.61425 53.4375 3.3651 54.5587C3.11595 55.6799 3.24052 56.5519 3.86339 57.2993C4.36169 58.0468 5.35829 58.6696 6.72861 59.0434Z" fill="white"/>
<path d="M13.8268 39.7332C14.8233 40.2315 15.5708 40.7298 16.1937 41.4772C16.8165 42.2247 17.0657 42.9721 17.1903 43.8441C17.3148 44.7161 17.0657 45.5882 16.692 46.5848C16.1937 47.5814 15.5708 48.3288 14.9479 48.8271C14.3251 49.3254 13.453 49.5745 12.4564 49.45C11.5844 49.45 10.5878 49.2008 9.59123 48.7025C8.59463 48.2042 7.84718 47.7059 7.22431 46.9585C6.60144 46.3356 6.35229 45.4636 6.22772 44.7161C6.10314 43.8441 6.35229 42.9721 6.72602 41.9755C7.22431 40.9789 7.72261 40.356 8.47006 39.8577C9.2175 39.3594 9.96495 39.1103 10.9615 39.2349C11.9581 39.3594 12.8302 39.2349 13.8268 39.7332ZM10.2141 47.4568C11.4598 48.0796 12.4564 48.2042 13.453 48.0796C14.4496 47.9551 15.0725 47.2076 15.6954 46.211C16.1937 45.0899 16.1937 44.0933 15.8199 43.3458C15.3216 42.4738 14.5742 41.8509 13.3285 41.2281C12.0827 40.6052 11.0861 40.4806 10.0895 40.6052C9.2175 40.7298 8.47006 41.4772 7.97176 42.4738C7.47346 43.595 7.47346 44.5916 7.84718 45.339C8.22091 46.0865 8.96835 46.8339 10.2141 47.4568Z" fill="white"/>
<path d="M24.0423 34.0034L23.1703 35.2492L16.817 35.4983L16.9416 36.9932L20.3051 39.3601L19.5577 40.4813L10.7129 34.5017L11.4603 33.3806L15.8204 36.3703C15.6959 35.872 15.5713 35.4983 15.4467 35C15.3221 34.5017 15.1976 34.128 15.073 33.6297L14.0764 29.3942L14.9484 28.1484L16.4433 34.2526L24.0423 34.0034Z" fill="white"/>
<path d="M32.0146 25.9115L30.8934 27.0327L20.5537 24.7904C20.8029 25.0395 21.1766 25.2887 21.5503 25.6624C21.9241 26.0361 22.2978 26.4098 22.6715 26.7836L26.907 31.0191L26.035 31.8911L18.5605 24.2921L19.6817 23.1709L29.8968 25.4132C29.7722 25.2887 29.6477 25.1641 29.3985 24.9149C29.1494 24.6658 28.9002 24.4166 28.6511 24.1675C28.4019 23.9183 28.1528 23.6692 27.9036 23.42L23.6681 19.1845L24.5401 18.3125L32.0146 25.9115Z" fill="white"/>
<path d="M38.3711 14.5692C38.994 15.4412 39.3677 16.4378 39.6169 17.3098C39.866 18.1818 39.7415 19.0539 39.3677 19.8013C38.994 20.5488 38.3711 21.2962 37.4991 21.9191C36.6271 22.5419 35.7551 22.9157 34.8831 22.9157C34.011 22.9157 33.2636 22.7911 32.3916 22.2928C31.6441 21.7945 30.8967 21.1716 30.2738 20.175C29.6509 19.303 29.2772 18.431 29.0281 17.559C28.7789 16.687 28.9035 15.8149 29.2772 15.0675C29.6509 14.32 30.2738 13.5726 31.1458 12.9497C32.0178 12.3268 32.8899 11.9531 33.7619 11.9531C34.6339 11.9531 35.3814 12.0777 36.2534 12.576C37.0008 12.9497 37.7483 13.6972 38.3711 14.5692ZM31.5195 19.4276C32.267 20.5488 33.139 21.2962 34.011 21.5453C34.8831 21.7945 35.8797 21.6699 36.8762 20.9225C37.8728 20.175 38.3711 19.4276 38.3711 18.431C38.3711 17.4344 37.9974 16.4378 37.25 15.3166C36.5025 14.1955 35.6305 13.448 34.7585 13.1989C33.8865 12.9497 32.8899 13.0743 31.8933 13.8217C30.8967 14.5692 30.3984 15.3166 30.3984 16.3132C30.2738 17.3098 30.6475 18.3064 31.5195 19.4276Z" fill="white"/>
<path d="M49.8266 3.48438L51.5706 14.4469L50.3249 14.9452L45.591 9.33937C45.3419 9.09022 45.2173 8.84107 44.9682 8.59192C44.719 8.34278 44.5945 8.09363 44.4699 7.96905C44.3453 7.84448 44.2207 7.59533 44.2207 7.59533C44.2207 7.7199 44.3453 7.96905 44.4699 8.46735C44.5945 8.96565 44.5945 9.33937 44.719 9.83767L45.7156 17.063L44.4699 17.5613L37.3691 8.84107L38.6149 8.2182L42.7258 13.5749C42.975 13.9486 43.3487 14.3223 43.5979 14.6961C43.847 15.0698 44.0962 15.4435 44.2207 15.6927C44.0962 15.3189 43.9716 14.9452 43.9716 14.4469C43.847 13.9486 43.847 13.5749 43.7224 13.0766L42.8504 6.47416L44.0962 5.97586L48.5808 11.0834C48.9546 11.4571 49.2037 11.8309 49.4529 12.2046C49.702 12.5783 49.9511 12.952 50.2003 13.2012C50.0757 12.8275 49.9511 12.4537 49.9511 11.9554C49.9511 11.4571 49.8266 11.0834 49.702 10.5851L48.5808 3.98267L49.8266 3.48438Z" fill="white"/>
<path d="M66.395 145.634C65.0247 145.509 64.0281 145.26 63.4052 144.762C62.7824 144.263 62.5332 143.641 62.5332 142.644C62.5332 142.021 62.7824 141.523 63.1561 141.149C63.5298 140.775 64.0281 140.526 64.7755 140.526V140.402C64.2772 140.277 63.9035 140.152 63.6544 139.903C63.2806 139.654 63.0315 139.405 62.9069 139.031C62.7824 138.658 62.6578 138.159 62.7824 137.661C62.9069 136.664 63.2807 136.042 64.0281 135.543C64.7755 135.045 65.6476 134.92 66.7687 135.045L70.506 135.419L69.5094 146.007L66.395 145.634ZM66.5196 141.024C65.6476 140.9 65.0247 141.025 64.651 141.274C64.2772 141.523 64.0281 141.897 64.0281 142.519C64.0281 143.142 64.1527 143.516 64.5264 143.89C64.9001 144.139 65.523 144.388 66.5196 144.513L68.2636 144.637L68.6373 141.274L66.5196 141.024ZM68.6373 140.152L69.0111 136.291L66.8933 136.042C65.8967 135.917 65.2738 136.042 64.9001 136.415C64.5264 136.789 64.2772 137.163 64.1527 137.786C64.1527 138.284 64.2772 138.782 64.651 139.156C65.0247 139.53 65.6476 139.779 66.6442 139.903L68.6373 140.152Z" fill="white"/>
<path d="M50.8293 137.032C51.0784 135.911 51.5767 135.039 52.075 134.416C52.6979 133.669 53.3208 133.295 54.1928 132.921C55.0648 132.672 55.9368 132.672 56.9334 132.921C58.0546 133.17 58.802 133.669 59.4249 134.292C60.0478 134.914 60.4215 135.662 60.5461 136.534C60.6706 137.406 60.5461 138.403 60.2969 139.524C60.0478 140.52 59.5495 141.517 59.0512 142.14C58.5529 142.887 57.8054 143.261 56.9334 143.51C56.0614 143.759 55.1894 143.759 54.0682 143.51C53.0716 143.261 52.1996 142.763 51.7013 142.14C51.0784 141.517 50.7047 140.769 50.5801 139.897C50.4555 139.025 50.5801 138.153 50.8293 137.032ZM59.0512 139.275C59.4249 138.029 59.4249 136.908 59.0512 136.036C58.6775 135.164 57.93 134.541 56.8088 134.292C55.6877 133.918 54.6911 134.167 53.9436 134.79C53.1962 135.413 52.6979 136.285 52.3242 137.655C51.9504 138.901 51.9504 140.022 52.3242 140.894C52.6979 141.766 53.4453 142.389 54.5665 142.638C55.6877 142.887 56.6843 142.763 57.4317 142.264C58.0546 141.517 58.6775 140.52 59.0512 139.275Z" fill="white"/>
<path d="M39.7371 132.177C40.2354 131.181 40.7337 130.433 41.4811 129.81C42.2286 129.187 42.976 128.938 43.848 128.814C44.7201 128.689 45.5921 128.938 46.5887 129.312C47.5853 129.81 48.3327 130.433 48.831 131.056C49.3293 131.803 49.5785 132.551 49.4539 133.547C49.4539 134.419 49.2047 135.416 48.7064 136.413C48.2081 137.409 47.7098 138.157 46.9624 138.78C46.3395 139.402 45.4675 139.652 44.7201 139.776C43.848 139.901 42.976 139.652 41.9794 139.278C40.9828 138.78 40.3599 138.281 39.8616 137.534C39.3634 136.786 39.1142 136.039 39.2388 135.042C39.3634 134.046 39.2388 133.174 39.7371 132.177ZM47.4607 135.665C48.0836 134.42 48.2081 133.423 48.0836 132.426C47.959 131.43 47.2115 130.807 46.2149 130.309C45.0938 129.81 44.0972 129.81 43.3497 130.184C42.4777 130.682 41.8548 131.43 41.232 132.675C40.6091 133.921 40.4845 134.918 40.6091 135.914C40.7337 136.786 41.4811 137.534 42.4777 138.032C43.5989 138.53 44.5955 138.53 45.3429 138.157C46.0904 137.783 46.8378 136.911 47.4607 135.665Z" fill="white"/>
<path d="M34.0073 121.836L35.2531 122.708L35.5022 129.061L36.9971 128.937L39.364 125.573L40.4852 126.321L34.5056 135.165L33.3845 134.418L36.3743 130.058C35.876 130.182 35.5022 130.307 35.0039 130.432C34.5056 130.556 34.1319 130.681 33.6336 130.805L29.3981 131.802L28.1523 130.93L34.2565 129.435L34.0073 121.836Z" fill="white"/>
<path d="M25.9115 113.984L27.0327 115.106L24.7904 125.445C25.0395 125.196 25.2887 124.822 25.6624 124.449C26.0361 124.075 26.4098 123.701 26.7836 123.327L31.0191 119.092L31.8911 119.964L24.2921 127.438L23.1709 126.317L25.4132 116.102C25.2887 116.227 25.1641 116.351 24.9149 116.6C24.6658 116.85 24.4166 117.099 24.1675 117.348C23.9183 117.597 23.6692 117.846 23.42 118.095L19.1845 122.331L18.3125 121.459L25.9115 113.984Z" fill="white"/>
<path d="M14.575 107.508C15.4471 106.885 16.4437 106.512 17.3157 106.262C18.1877 106.013 19.0597 106.138 19.8072 106.512C20.5546 106.885 21.3021 107.508 21.9249 108.38C22.5478 109.252 22.9215 110.124 22.9215 110.996C22.9215 111.868 22.797 112.616 22.2987 113.488C21.8004 114.235 21.1775 114.983 20.1809 115.606C19.3089 116.228 18.4369 116.602 17.5648 116.851C16.6928 117.1 15.8208 116.976 15.0733 116.602C14.3259 116.228 13.5785 115.606 12.9556 114.733C12.3327 113.861 11.959 112.989 11.959 112.117C11.959 111.245 12.0836 110.498 12.5819 109.626C13.0802 108.754 13.703 108.131 14.575 107.508ZM19.4334 114.484C20.5546 113.737 21.3021 112.865 21.5512 111.993C21.8004 111.121 21.6758 110.124 20.9283 109.128C20.1809 108.131 19.4334 107.633 18.4369 107.633C17.4403 107.633 16.4437 108.006 15.3225 108.754C14.2013 109.501 13.4539 110.373 13.2047 111.245C12.9556 112.117 13.0802 113.114 13.8276 114.111C14.575 115.107 15.3225 115.606 16.3191 115.606C17.3157 115.606 18.3123 115.232 19.4334 114.484Z" fill="white"/>
<path d="M3.48828 96.1737L14.4508 94.4297L14.9491 95.6754L9.34328 100.409C9.09413 100.658 8.84498 100.783 8.59583 101.032C8.34668 101.281 8.09753 101.406 7.97296 101.53C7.84838 101.655 7.59924 101.78 7.59924 101.78C7.72381 101.78 7.97296 101.655 8.47126 101.53C8.96955 101.406 9.34328 101.406 9.84157 101.281L17.0669 100.285L17.5652 101.53L8.96955 108.382L8.34668 107.136L13.7034 103.025C14.0771 102.776 14.4508 102.402 14.8245 102.153C15.1983 101.904 15.572 101.655 15.8211 101.53C15.4474 101.655 15.0737 101.78 14.5754 101.78C14.0771 101.904 13.7034 101.904 13.2051 102.029L6.60264 102.901L6.10434 101.655L11.2119 97.2949C11.5856 96.9212 11.9593 96.672 12.3331 96.4229C12.7068 96.1737 13.0805 95.9246 13.3297 95.6754C12.9559 95.8 12.5822 95.9246 12.0839 95.9246C11.5856 95.9246 11.2119 96.0491 10.7136 96.1737L4.11115 97.2949L3.48828 96.1737Z" fill="white"/>
<path d="M145.626 79.6031C145.501 80.9735 145.252 81.9701 144.754 82.5929C144.256 83.2158 143.633 83.4649 142.636 83.4649C142.013 83.4649 141.515 83.2158 141.141 82.8421C140.768 82.4684 140.518 81.9701 140.518 81.2226H140.394C140.269 81.7209 140.145 82.0946 139.896 82.3438C139.646 82.7175 139.397 82.9666 139.023 83.0912C138.65 83.2158 138.151 83.3404 137.653 83.2158C136.657 83.0912 136.034 82.7175 135.535 81.9701C135.037 81.2226 134.913 80.3506 135.037 79.2294L135.411 75.4922L146 76.4888L145.626 79.6031ZM140.145 77.3608L136.283 76.9871L136.034 79.1048C135.909 80.1014 136.034 80.7243 136.407 81.098C136.781 81.4718 137.155 81.7209 137.778 81.8455C138.276 81.8455 138.774 81.7209 139.148 81.3472C139.522 80.9735 139.771 80.3506 139.896 79.354L140.145 77.3608ZM141.017 79.354C140.892 80.226 141.017 80.8489 141.266 81.2226C141.515 81.5963 141.889 81.8455 142.512 81.8455C143.134 81.8455 143.508 81.7209 143.882 81.3472C144.131 80.9735 144.38 80.3506 144.505 79.354L144.629 77.61L141.266 77.2362L141.017 79.354Z" fill="white"/>
<path d="M137.032 95.0469C135.911 94.7978 135.039 94.2995 134.416 93.8012C133.669 93.1783 133.295 92.5554 132.921 91.6834C132.672 90.8114 132.672 89.9394 132.921 88.9428C133.17 87.8216 133.669 87.0742 134.292 86.4513C134.914 85.8284 135.662 85.4547 136.534 85.3301C137.406 85.2055 138.403 85.3301 139.524 85.5793C140.52 85.8284 141.517 86.3267 142.14 86.825C142.763 87.3233 143.261 88.0708 143.51 88.9428C143.759 89.8148 143.759 90.6868 143.51 91.808C143.261 92.8046 142.763 93.6766 142.14 94.1749C141.517 94.7978 140.769 95.1715 139.897 95.2961C139.025 95.4206 138.153 95.2961 137.032 95.0469ZM139.275 86.9496C138.029 86.5759 136.908 86.5759 136.036 86.9496C135.164 87.3233 134.541 88.0708 134.292 89.1919C133.918 90.3131 134.167 91.3097 134.79 92.0571C135.413 92.8046 136.285 93.3029 137.655 93.6766C138.901 94.0503 140.022 94.0503 140.894 93.6766C141.766 93.3029 142.389 92.5554 142.638 91.4343C142.887 90.3131 142.763 89.3165 142.264 88.5691C141.517 87.8216 140.52 87.3233 139.275 86.9496Z" fill="white"/>
<path d="M132.173 106.139C131.177 105.641 130.429 105.143 129.806 104.395C129.183 103.648 128.934 102.9 128.81 102.028C128.685 101.156 128.934 100.284 129.308 99.2876C129.806 98.291 130.429 97.5435 131.052 97.0452C131.8 96.5469 132.547 96.2978 133.544 96.4224C134.416 96.4224 135.412 96.6715 136.409 97.1698C137.405 97.6681 138.153 98.1664 138.776 98.9139C139.399 99.5367 139.648 100.409 139.772 101.156C139.897 102.028 139.648 102.9 139.274 103.897C138.776 104.893 138.277 105.516 137.53 106.015C136.783 106.513 136.035 106.762 135.038 106.637C134.042 106.513 133.17 106.637 132.173 106.139ZM135.661 98.5401C134.416 97.9173 133.419 97.7927 132.422 97.9173C131.426 98.0418 130.803 98.7893 130.305 99.7859C129.806 100.907 129.806 101.904 130.18 102.651C130.678 103.523 131.426 104.146 132.672 104.769C133.917 105.392 134.914 105.516 135.91 105.392C136.783 105.267 137.53 104.52 138.028 103.523C138.527 102.402 138.527 101.405 138.153 100.658C137.779 99.7859 136.907 99.0384 135.661 98.5401Z" fill="white"/>
<path d="M121.836 111.868L122.708 110.623L129.061 110.374L128.937 108.879L125.573 106.512L126.321 105.391L135.165 111.37L134.418 112.491L130.058 109.502C130.182 110 130.307 110.374 130.432 110.872C130.556 111.37 130.681 111.744 130.805 112.242L131.802 116.478L130.93 117.723L129.435 111.619L121.836 111.868Z" fill="white"/>
<path d="M113.984 120.089L115.106 118.968L125.445 121.21C125.196 120.961 124.822 120.712 124.449 120.338C124.075 119.964 123.701 119.591 123.327 119.217L119.092 114.981L119.964 114.109L127.438 121.708L126.317 122.83L116.102 120.587C116.227 120.712 116.351 120.836 116.6 121.086C116.85 121.335 117.099 121.584 117.348 121.833C117.597 122.082 117.846 122.331 118.095 122.58L122.331 126.816L121.459 127.688L113.984 120.089Z" fill="white"/>
<path d="M107.51 131.3C106.887 130.428 106.514 129.431 106.264 128.559C106.015 127.687 106.14 126.815 106.514 126.067C106.887 125.32 107.51 124.573 108.382 123.95C109.254 123.327 110.126 122.953 110.998 122.953C111.87 122.953 112.618 123.078 113.49 123.576C114.237 124.074 114.985 124.697 115.607 125.694C116.23 126.566 116.604 127.438 116.853 128.31C117.102 129.182 116.978 130.054 116.604 130.801C116.23 131.549 115.607 132.296 114.735 132.919C113.863 133.542 112.991 133.916 112.119 133.916C111.247 133.916 110.5 133.791 109.628 133.293C108.756 132.795 108.133 132.172 107.51 131.3ZM114.486 126.441C113.739 125.32 112.867 124.573 111.995 124.323C111.123 124.074 110.126 124.199 109.13 124.946C108.133 125.694 107.635 126.441 107.635 127.438C107.635 128.434 108.008 129.431 108.756 130.552C109.503 131.673 110.375 132.421 111.247 132.67C112.119 132.919 113.116 132.795 114.113 132.047C115.109 131.3 115.607 130.552 115.607 129.556C115.607 128.559 115.234 127.562 114.486 126.441Z" fill="white"/>
<path d="M96.1698 142.514L94.4258 131.552L95.6715 131.054L100.405 136.659C100.654 136.909 100.779 137.158 101.028 137.407C101.277 137.656 101.402 137.905 101.527 138.03C101.651 138.154 101.776 138.403 101.776 138.403C101.776 138.279 101.651 138.03 101.527 137.531C101.402 137.033 101.402 136.659 101.277 136.161L100.281 128.936L101.527 128.438L108.378 137.033L107.132 137.656L103.021 132.299C102.772 131.926 102.399 131.552 102.149 131.178C101.9 130.804 101.651 130.431 101.527 130.182C101.651 130.555 101.776 130.929 101.776 131.427C101.9 131.926 101.9 132.299 102.025 132.798L102.897 139.4L101.651 139.898L97.291 134.791C96.9173 134.417 96.6681 134.043 96.419 133.67C96.1698 133.296 95.9207 132.922 95.6715 132.673C95.7961 133.047 95.9207 133.42 95.9207 133.919C95.9207 134.417 96.0452 134.791 96.1698 135.289L97.291 141.892L96.1698 142.514Z" fill="white"/>
</svg>
